<?xml version="1.0" standalone="no"?>
<!DOCTYPE svg PUBLIC "-//W3C//DTD SVG 20010904//EN"
 "http://www.w3.org/TR/2001/REC-SVG-20010904/DTD/svg10.dtd">
<svg version="1.0" xmlns="http://www.w3.org/2000/svg"
 width="900.000000pt" height="900.000000pt" viewBox="0 0 900.000000 900.000000"
 preserveAspectRatio="xMidYMid meet">
<metadata>
Created by potrace 1.10, written by Peter Selinger 2001-2011
</metadata>
<g transform="translate(0.000000,900.000000) scale(0.100000,-0.100000)"
fill="#AA22DD" stroke="none">
<path d="M1726 8822 c-13 -22 -29 -57 -35 -79 -6 -22 -20 -48 -31 -58 -24 -21
-106 -60 -148 -70 -17 -3 -35 -12 -41 -19 -15 -18 48 -66 103 -78 49 -10 116
-67 116 -99 0 -12 14 -46 31 -76 36 -62 58 -66 72 -13 5 19 15 42 22 50 7 8
15 31 19 50 8 41 52 74 121 91 54 14 94 52 79 77 -6 9 -24 19 -40 23 -16 3
-43 13 -61 22 -18 9 -38 17 -46 17 -22 0 -39 26 -73 114 -19 46 -39 82 -48 84
-9 2 -25 -13 -40 -36z"/>
<path d="M5518 8818 c-13 -24 -30 -63 -38 -88 -13 -39 -22 -49 -68 -72 -29
-14 -72 -32 -95 -40 -23 -7 -43 -20 -44 -28 -3 -22 51 -61 100 -72 48 -10 107
-61 107 -92 1 -25 61 -129 75 -129 13 0 61 94 69 135 7 39 53 73 117 87 51 12
104 58 88 78 -6 7 -28 17 -48 23 -20 5 -60 22 -90 37 -46 24 -56 34 -66 68
-23 74 -54 135 -69 135 -9 0 -26 -19 -38 -42z"/>
<path d="M6997 8580 c-76 -7 -98 -21 -81 -48 8 -12 30 -19 80 -23 235 -18 558
-237 730 -493 10 -16 27 -41 37 -55 9 -14 28 -49 42 -78 13 -28 28 -54 34 -57
5 -4 13 -21 17 -38 3 -18 13 -43 21 -55 8 -12 18 -48 23 -81 4 -33 17 -73 29
-89 17 -24 21 -49 26 -188 8 -199 -5 -367 -29 -394 -9 -10 -21 -45 -26 -77 -9
-62 -43 -152 -73 -194 -9 -13 -17 -31 -17 -39 0 -14 -18 -44 -84 -141 -39 -57
-43 -61 -118 -144 -68 -74 -212 -196 -232 -196 -7 0 -21 -9 -31 -20 -20 -22
-115 -70 -138 -70 -8 0 -26 -9 -40 -20 -18 -14 -57 -25 -117 -35 -90 -13 -130
-32 -130 -61 0 -31 38 -35 242 -26 182 8 207 11 238 30 20 12 51 22 73 22 21
0 63 9 94 20 32 11 67 20 79 20 13 0 35 10 51 23 15 13 49 31 75 41 26 9 62
28 80 41 18 14 44 29 57 35 13 6 33 19 45 30 11 10 56 49 98 87 77 68 228 244
228 266 0 7 18 38 40 70 23 32 45 79 51 106 6 27 19 57 30 67 10 9 19 28 19
41 0 13 9 49 20 81 32 87 47 318 32 482 -6 71 -18 145 -26 163 -7 19 -17 54
-21 78 -4 24 -18 61 -31 81 -13 21 -24 48 -24 61 0 12 -8 34 -17 47 -18 26
-31 48 -72 122 -66 121 -304 358 -399 397 -17 7 -32 17 -32 22 0 4 -35 24 -77
44 -43 19 -94 44 -114 55 -21 11 -57 22 -80 26 -24 3 -65 14 -90 25 -31 12
-92 22 -185 29 -76 5 -161 12 -189 14 -27 2 -81 0 -118 -4z m633 -230 c14 -11
31 -20 38 -20 41 0 188 -86 251 -146 38 -35 73 -64 78 -64 16 0 126 -130 157
-185 9 -16 25 -43 36 -60 60 -94 123 -256 135 -345 4 -30 12 -66 17 -80 11
-30 14 -241 4 -325 -19 -158 -35 -213 -109 -365 -80 -164 -219 -345 -295 -384
-16 -8 -35 -28 -42 -45 -13 -33 -33 -44 -62 -35 -12 3 -25 -2 -36 -14 -9 -10
-37 -27 -62 -37 -25 -9 -55 -22 -67 -28 -35 -16 -38 -1 -9 33 14 17 26 35 26
38 0 4 23 31 50 60 28 30 50 57 50 61 0 3 12 20 28 37 33 37 166 303 182 364
12 48 31 115 57 195 24 75 30 413 9 496 -9 33 -16 67 -16 75 0 8 -9 34 -21 57
-11 23 -25 67 -30 98 -10 64 -60 179 -96 222 -13 16 -23 34 -23 41 0 7 -13 30
-30 51 -16 21 -30 42 -30 47 0 14 -179 225 -206 243 -23 15 -33 35 -16 35 4 0
18 -9 32 -20z"/>
<path d="M3199 8118 c-16 -18 -29 -40 -29 -49 0 -16 53 -69 69 -69 4 0 24 16
45 35 l38 35 -40 40 c-22 22 -43 40 -46 40 -4 0 -20 -15 -37 -32z"/>
<path d="M4277 7120 c-55 -59 -48 -76 31 -72 46 3 70 -1 88 -13 20 -13 39 -14
97 -9 72 6 72 6 116 -30 26 -22 53 -36 71 -36 15 0 38 -8 51 -18 59 -45 139
-82 185 -86 27 -3 57 -8 67 -11 10 -4 60 -2 112 6 85 11 100 11 154 -6 74 -22
101 -47 83 -76 -13 -21 -8 -59 8 -59 5 0 17 14 26 32 34 66 77 83 121 48 14
-11 36 -20 48 -20 12 0 30 -9 40 -20 22 -25 52 -26 58 -2 3 9 2 36 -1 58 -6
35 -16 49 -67 91 l-60 49 -94 2 c-76 1 -104 6 -149 27 -78 36 -178 36 -212 0
-17 -18 -34 -25 -59 -25 -35 1 -137 44 -170 73 -9 8 -42 29 -74 45 -32 17 -72
42 -88 56 -27 23 -39 26 -113 26 -46 0 -116 3 -157 6 l-74 6 -38 -42z"/>
<path d="M299 7109 c-27 -10 -49 -46 -49 -79 0 -25 46 -60 79 -60 29 0 38 5
64 36 17 20 17 25 3 57 -13 32 -42 58 -63 56 -4 0 -20 -5 -34 -10z"/>
<path d="M4412 6940 c-12 -5 -41 -29 -65 -53 -23 -24 -53 -50 -67 -57 -32 -17
-134 -15 -210 5 -31 8 -109 18 -172 21 -110 7 -118 6 -154 -17 -22 -13 -69
-52 -105 -87 -37 -35 -77 -69 -90 -76 -27 -13 -36 -50 -19 -72 19 -22 38 -17
81 20 29 24 57 37 102 46 34 6 78 20 99 31 41 21 142 26 154 8 9 -15 -14 -29
-48 -29 -31 0 -57 -35 -40 -52 6 -6 71 -9 169 -6 141 4 165 7 223 30 36 14 83
29 105 33 22 4 54 15 70 25 54 32 82 33 136 5 52 -25 76 -29 117 -19 22 6 22
7 -10 30 -18 14 -39 22 -47 19 -8 -3 -23 4 -34 16 -16 17 -27 20 -62 16 -48
-7 -85 0 -85 17 0 7 24 32 54 56 79 66 84 77 38 90 -45 12 -109 12 -140 0z"/>
<path d="M5465 6703 c-6 -5 -16 -20 -22 -35 -7 -16 -17 -28 -23 -28 -19 0 -10
-17 15 -28 20 -9 25 -19 25 -50 0 -50 -29 -77 -94 -86 -39 -5 -53 -2 -76 14
-43 31 -67 26 -74 -14 -4 -22 -14 -37 -26 -41 -11 -4 -23 -17 -26 -30 -3 -13
-14 -31 -25 -41 -10 -9 -19 -24 -19 -33 0 -22 -30 -69 -74 -116 -21 -22 -49
-58 -62 -81 -13 -22 -35 -51 -49 -64 -25 -23 -26 -28 -19 -90 5 -47 13 -73 30
-93 13 -16 24 -34 24 -40 0 -7 6 -24 14 -38 7 -14 16 -38 20 -54 13 -52 57
-115 102 -146 24 -16 44 -36 44 -43 0 -7 14 -30 30 -51 17 -21 30 -47 30 -59
0 -11 7 -53 15 -91 8 -39 12 -85 9 -102 -6 -31 -9 -33 -49 -33 -23 0 -57 -8
-76 -17 -50 -25 -99 -22 -148 10 -22 15 -59 39 -81 53 -36 24 -150 162 -150
182 0 5 -9 17 -20 27 -11 10 -34 43 -51 74 -18 31 -42 69 -55 84 -13 16 -24
35 -24 43 0 8 -16 21 -34 29 -19 8 -46 26 -60 40 -14 14 -31 25 -38 25 -7 0
-40 21 -73 46 -60 45 -61 45 -135 43 -124 -2 -137 0 -167 25 -16 14 -51 36
-78 51 -27 14 -59 34 -70 44 -20 18 -49 35 -110 64 -16 8 -36 21 -44 30 -7 10
-22 17 -33 17 -16 0 -98 33 -149 60 -9 4 -39 2 -70 -5 -30 -7 -85 -20 -124
-30 -148 -35 -375 -38 -375 -5 0 5 -10 12 -22 16 -13 4 -36 17 -51 30 -16 13
-37 24 -46 24 -10 0 -30 9 -44 20 -14 11 -41 27 -59 36 -18 8 -49 25 -68 37
-20 12 -51 31 -69 42 -19 11 -60 40 -93 65 -32 25 -86 65 -119 90 -33 25 -83
66 -111 91 l-51 46 -93 7 c-52 3 -105 4 -119 0 -28 -7 -31 -31 -5 -45 51 -26
99 -47 122 -53 22 -5 30 -16 43 -58 8 -28 15 -66 15 -83 0 -40 23 -61 75 -68
22 -4 76 -11 120 -17 76 -11 83 -14 130 -59 28 -26 68 -62 90 -81 102 -85 167
-145 287 -265 71 -71 137 -141 146 -154 15 -23 19 -23 105 -18 62 4 95 11 107
22 12 11 55 21 127 30 59 7 119 17 133 22 14 6 66 14 115 18 56 4 104 14 127
26 47 24 79 24 109 0 22 -17 66 -32 184 -62 26 -7 50 -23 70 -47 16 -20 39
-46 50 -57 26 -25 85 -116 85 -130 0 -25 62 -84 105 -99 25 -8 57 -24 72 -35
14 -12 36 -21 48 -21 37 0 206 -93 256 -141 142 -135 150 -140 205 -135 31 2
56 0 63 -7 14 -14 15 -47 1 -47 -5 0 -39 -28 -75 -63 -69 -67 -65 -57 -98
-218 -8 -37 -21 -77 -31 -90 -9 -13 -16 -30 -16 -37 0 -7 -33 -47 -72 -87 -40
-41 -84 -90 -98 -109 -14 -19 -44 -45 -67 -58 -23 -12 -46 -33 -52 -45 -6 -13
-17 -23 -24 -23 -7 0 -24 -11 -37 -25 -13 -14 -34 -25 -46 -25 -13 0 -29 -8
-36 -19 -7 -10 -23 -21 -36 -25 -12 -4 -30 -18 -38 -32 -9 -13 -23 -24 -30
-24 -8 0 -14 -4 -14 -10 0 -13 27 -13 35 0 3 5 25 14 48 21 50 13 136 60 162
89 10 11 23 20 28 20 23 0 96 43 102 59 3 10 27 32 55 50 27 17 58 47 70 66
12 19 29 39 38 44 16 9 51 63 77 119 8 17 19 32 24 32 5 0 14 15 21 33 23 59
55 122 86 167 17 25 40 63 52 85 11 22 29 49 41 59 12 11 21 31 21 48 0 32 28
48 85 48 35 0 124 -40 145 -65 17 -21 37 -19 45 5 7 23 -1 40 -18 40 -7 0 -21
19 -33 43 -11 23 -33 67 -49 97 -19 39 -29 76 -33 125 -4 54 -10 73 -26 86
-17 14 -18 19 -7 33 7 9 19 16 26 16 12 0 54 -81 124 -240 6 -14 26 -45 45
-70 27 -35 35 -55 36 -90 1 -51 18 -80 47 -80 28 0 37 -14 57 -90 10 -36 24
-84 33 -108 18 -49 14 -142 -10 -209 -10 -30 -15 -92 -16 -213 -1 -94 -6 -196
-11 -228 -6 -31 -10 -75 -10 -98 0 -22 -9 -67 -19 -99 -19 -57 -19 -59 -1 -82
10 -13 22 -38 25 -55 4 -17 16 -49 26 -72 10 -22 19 -58 19 -78 0 -21 4 -38 9
-38 24 0 34 38 41 157 4 71 13 142 20 158 10 21 13 98 14 267 l1 237 -27 28
c-23 25 -27 38 -30 108 -3 71 -1 80 16 83 26 5 36 -14 37 -78 1 -75 10 -99 39
-113 15 -8 27 -24 30 -42 3 -17 10 -29 15 -27 6 1 9 61 6 159 -4 167 -19 231
-61 253 -18 10 -20 22 -20 153 -1 78 -5 160 -10 182 -5 22 -18 82 -29 133 -11
51 -26 102 -32 114 -7 12 -13 109 -17 247 l-5 226 -54 62 c-31 35 -65 64 -81
68 -62 15 -135 59 -187 112 -68 70 -75 89 -42 117 13 11 27 29 31 39 8 24 -9
54 -33 62 -34 11 -39 86 -6 99 20 7 45 -3 45 -19 0 -11 119 -126 151 -146 17
-10 45 15 70 63 10 20 26 41 36 46 12 7 16 22 14 65 -1 52 9 78 37 89 11 4 22
93 13 105 -22 32 -134 72 -156 56z m-261 -553 c14 -5 33 -24 42 -42 9 -18 27
-46 40 -61 13 -16 24 -37 24 -47 0 -11 11 -36 25 -56 29 -43 25 -54 -18 -54
-60 0 -76 10 -83 49 -3 20 -14 47 -23 61 -10 14 -21 37 -25 52 -4 19 -17 33
-41 42 -40 17 -46 42 -12 56 29 12 41 12 71 0z m-1609 -140 c3 -5 19 -10 34
-10 39 0 56 -22 33 -42 -23 -21 -41 -26 -152 -38 -52 -6 -117 -18 -145 -27
-27 -8 -79 -21 -115 -28 l-64 -13 -34 34 c-22 22 -32 41 -30 56 3 26 23 31
198 48 58 6 125 14 150 19 65 12 118 13 125 1z m1535 -53 c19 -32 76 -79 128
-106 21 -11 29 -9 64 14 48 32 97 28 142 -12 24 -20 31 -37 37 -82 5 -32 5
-71 0 -87 -7 -27 -12 -30 -67 -37 -32 -4 -64 -14 -70 -22 -13 -18 -58 -29 -86
-21 -13 3 -36 26 -52 51 -15 25 -36 50 -46 55 -10 5 -24 27 -31 47 -6 21 -19
49 -28 63 -25 38 -51 99 -51 120 0 57 31 66 60 17z m325 -383 c6 -17 16 -39
24 -48 8 -9 16 -40 19 -69 2 -29 12 -61 22 -72 17 -20 62 -111 74 -152 4 -11
13 -24 21 -27 9 -3 15 -19 15 -39 0 -20 8 -44 20 -57 24 -28 25 -43 4 -61 -13
-11 -19 -8 -40 17 -13 16 -32 43 -41 59 -9 17 -24 41 -34 54 -11 13 -19 32
-19 42 0 9 -10 30 -22 46 -46 57 -78 120 -78 151 0 11 -8 30 -18 43 -18 23
-42 100 -42 134 0 13 9 16 43 13 37 -3 43 -7 52 -34z"/>
<path d="M4370 6610 c-12 -8 -11 -12 7 -32 11 -13 25 -33 32 -45 6 -13 36 -31
73 -45 54 -20 63 -28 63 -48 0 -22 -5 -25 -38 -28 -42 -4 -97 12 -206 57 -117
49 -171 39 -263 -52 -66 -64 -58 -63 -180 -41 -61 10 -70 2 -52 -43 9 -21 21
-41 28 -45 6 -4 48 -8 92 -8 87 0 97 4 170 72 35 33 62 36 164 20 86 -13 100
-19 130 -54 23 -26 33 -30 121 -39 104 -10 154 0 206 41 14 11 33 20 42 20 9
0 39 11 66 25 28 13 54 25 59 25 4 0 21 11 38 25 16 14 39 25 51 25 12 0 31 7
41 15 27 20 46 19 46 -3 0 -34 12 -32 51 8 66 68 46 96 -57 84 -33 -4 -54 -2
-58 5 -11 17 -41 13 -69 -9 -14 -12 -52 -30 -84 -40 -32 -11 -67 -24 -78 -29
-21 -10 -56 -18 -112 -28 -26 -4 -34 -1 -39 13 -4 11 -14 27 -22 36 -20 24 -3
44 44 53 29 5 35 10 32 28 -3 18 -13 23 -78 33 -91 15 -200 17 -220 4z"/>
<path d="M1610 5946 c-6 -6 -10 -13 -10 -17 0 -3 -20 -40 -45 -81 -25 -42 -45
-80 -45 -85 0 -5 -9 -18 -21 -29 -11 -10 -29 -35 -38 -54 -37 -73 -56 -97
-127 -154 -41 -34 -70 -65 -67 -72 9 -24 38 -24 108 1 39 14 93 25 122 25 39
0 58 6 80 23 15 13 58 40 95 61 36 20 72 43 78 51 7 8 17 15 22 15 6 0 23 11
40 25 36 30 73 32 88 5 6 -11 23 -23 38 -26 15 -4 41 -18 58 -31 17 -12 35
-23 40 -23 5 0 20 -9 34 -20 14 -11 32 -20 40 -20 8 0 33 -14 54 -30 22 -17
47 -30 57 -30 9 0 22 -7 29 -15 6 -8 22 -17 33 -21 12 -4 35 -17 50 -30 16
-13 37 -24 47 -24 10 0 53 -21 96 -48 71 -43 79 -51 86 -87 4 -22 14 -51 22
-65 7 -14 17 -43 21 -65 4 -22 11 -46 17 -52 8 -10 75 -13 273 -13 231 0 264
2 276 16 8 9 32 25 54 36 65 31 106 55 129 76 11 11 31 23 44 27 36 11 213
-15 249 -36 20 -13 60 -22 115 -26 89 -7 201 -39 258 -76 113 -73 114 -73 168
-58 87 25 146 32 277 34 119 2 133 0 168 -20 47 -28 93 -29 149 -4 24 11 61
23 82 28 44 9 57 26 29 38 -10 4 -78 11 -150 15 -104 6 -138 11 -160 26 -43
29 -198 27 -276 -4 -80 -31 -122 -30 -182 1 -27 15 -55 27 -61 27 -6 0 -19 9
-29 20 -9 10 -33 24 -52 31 -19 6 -47 17 -61 25 -15 8 -31 14 -36 14 -4 0 -21
11 -38 25 -16 14 -39 25 -51 25 -12 0 -62 20 -110 45 -48 24 -107 47 -130 50
-69 10 -257 -11 -302 -33 -93 -46 -132 -61 -172 -67 -23 -4 -47 -13 -54 -21
-26 -32 -53 -13 -164 118 -48 56 -276 311 -297 331 -10 10 -18 22 -18 27 0 5
-28 23 -62 40 -35 18 -71 39 -80 47 -9 8 -30 22 -47 31 -16 10 -54 34 -84 55
l-54 37 -297 -2 c-170 -2 -301 -7 -306 -12z m490 -121 c60 -3 118 -24 190 -71
25 -16 61 -36 81 -45 33 -15 93 -70 180 -165 19 -21 52 -54 72 -71 20 -18 54
-56 75 -85 22 -29 67 -81 101 -115 33 -35 61 -67 61 -72 0 -16 -102 -1 -130
18 -14 10 -38 38 -55 63 -69 104 -121 152 -221 208 -54 30 -120 64 -146 76
-27 11 -54 26 -60 32 -7 7 -18 12 -26 12 -7 0 -39 18 -69 40 -31 22 -63 40
-70 40 -8 0 -46 19 -85 41 -52 31 -82 42 -112 42 -41 0 -41 0 -17 16 32 22
131 50 155 43 11 -2 45 -6 76 -7z m-310 -30 c0 -9 -9 -15 -23 -15 -13 0 -36
-13 -52 -30 -31 -33 -62 -39 -72 -15 -3 9 3 25 12 36 32 34 135 53 135 24z"/>
<path d="M6898 4927 c-16 -13 -34 -43 -43 -72 -28 -90 -47 -118 -85 -128 -19
-5 -42 -15 -51 -23 -8 -7 -31 -17 -50 -20 -58 -11 -72 -22 -64 -52 8 -34 31
-52 66 -52 42 0 127 -49 149 -86 11 -18 27 -55 36 -84 11 -38 23 -56 46 -70
37 -22 44 -20 52 17 4 16 13 42 21 58 8 17 21 46 29 66 10 27 28 44 70 67 30
18 66 32 78 32 45 0 67 12 77 42 14 39 10 44 -47 57 -81 18 -154 62 -176 107
-36 74 -46 99 -54 128 -10 38 -21 40 -54 13z m64 -282 c16 -35 1 -48 -40 -34
-47 16 -44 59 5 59 15 0 27 -9 35 -25z"/>
<path d="M8152 4917 c-6 -6 -13 -24 -17 -39 -9 -34 -21 -44 -67 -52 -21 -4
-40 -11 -44 -17 -10 -16 24 -58 63 -77 25 -11 40 -27 47 -49 6 -18 17 -38 23
-44 20 -20 61 5 70 43 7 26 19 38 56 56 32 15 49 30 53 48 8 31 6 33 -46 42
-37 6 -45 12 -53 37 -18 57 -60 83 -85 52z"/>
<path d="M4764 4890 c-12 -4 -115 -13 -230 -20 -229 -12 -207 -6 -299 -92
-114 -107 -145 -139 -145 -148 0 -5 -14 -17 -31 -26 -21 -10 -28 -19 -21 -26
16 -16 79 -13 100 5 10 9 25 17 34 17 8 0 27 9 41 20 14 11 30 20 36 20 6 0
26 14 44 30 19 17 39 30 45 30 5 0 34 11 63 24 44 19 69 23 139 22 l85 -2 10
-38 c9 -37 8 -39 -33 -75 -23 -20 -42 -42 -42 -49 0 -7 -12 -18 -27 -25 -16
-6 -44 -28 -63 -47 -56 -55 -109 -98 -129 -105 -9 -3 -25 -21 -34 -40 -21 -45
-21 -45 3 -45 15 0 22 9 27 31 6 30 8 31 45 26 31 -4 40 -1 48 14 6 10 17 19
25 19 8 0 20 9 28 20 8 11 27 25 43 30 16 6 43 26 59 46 17 20 59 66 95 103
133 138 188 324 84 281z"/>
<path d="M3755 4757 c-27 -13 -71 -27 -98 -30 -26 -4 -60 -16 -75 -27 -15 -11
-47 -24 -72 -29 -25 -5 -63 -16 -85 -25 -22 -8 -48 -15 -58 -16 -10 0 -39 -11
-65 -25 -26 -14 -63 -25 -84 -25 -41 0 -143 -35 -173 -60 -11 -9 -32 -21 -47
-28 -32 -13 -35 -24 -13 -42 12 -10 38 -10 122 -1 60 6 134 11 165 11 46 0 62
4 83 24 14 14 45 28 68 31 23 4 91 25 152 47 60 22 128 44 150 48 22 5 58 15
81 23 32 12 50 13 82 4 39 -10 47 -9 107 22 35 18 67 42 70 52 4 11 11 19 16
19 5 0 9 9 9 20 0 17 -7 20 -47 20 -27 0 -91 3 -143 6 -86 5 -100 3 -145 -19z"/>
<path d="M847 4683 c-3 -5 -10 -26 -16 -49 -8 -31 -19 -45 -50 -62 -21 -12
-46 -22 -55 -22 -17 0 -40 -35 -32 -49 3 -5 25 -19 48 -31 60 -31 87 -58 94
-96 9 -51 29 -62 60 -33 14 13 32 40 40 60 12 29 28 42 80 68 36 18 63 38 61
44 -4 12 -23 24 -90 53 -26 12 -42 27 -53 52 -8 20 -22 44 -31 54 -16 18 -48
24 -56 11z"/>
<path d="M2493 4400 c-32 -13 -29 -34 10 -77 19 -21 49 -65 67 -98 18 -33 41
-69 50 -80 10 -11 21 -31 25 -45 17 -57 68 -78 107 -43 13 11 43 18 101 21 65
3 87 9 104 25 14 12 45 23 77 28 34 4 62 15 75 28 12 12 30 21 40 21 11 0 32
11 47 25 23 21 36 25 93 25 36 0 73 4 81 10 17 11 20 9 -82 36 -62 16 -69 16
-92 0 -14 -9 -31 -16 -38 -16 -7 0 -35 -11 -62 -25 -27 -14 -58 -25 -68 -25
-10 0 -36 -9 -57 -20 -22 -11 -52 -19 -67 -19 -16 0 -42 -3 -58 -7 -35 -8 -92
19 -102 49 -9 30 20 47 80 47 28 0 77 9 110 20 33 11 100 22 155 25 83 5 124
12 190 31 25 8 -2 23 -59 34 -30 6 -194 15 -365 20 -170 5 -317 11 -325 14 -8
2 -25 1 -37 -4z"/>
<path d="M3248 4121 c-8 -10 -31 -24 -53 -30 -22 -6 -49 -18 -59 -26 -11 -8
-35 -15 -53 -15 -21 0 -41 -8 -55 -22 -16 -16 -48 -26 -127 -39 -58 -10 -127
-18 -152 -19 -31 0 -51 -6 -61 -17 -23 -26 -48 -79 -48 -101 0 -18 61 -82 78
-82 4 0 48 -40 98 -88 68 -65 98 -103 122 -152 49 -101 61 -147 55 -201 -5
-43 -3 -51 18 -68 35 -30 58 -26 98 18 20 21 46 41 59 45 12 4 22 11 22 16 0
4 15 17 33 29 86 55 105 72 111 97 4 15 16 39 27 52 10 14 19 35 19 48 0 23
23 54 41 54 5 0 9 7 9 15 0 32 -38 12 -97 -51 -34 -36 -66 -78 -73 -93 -6 -16
-25 -38 -42 -51 -25 -19 -34 -21 -50 -11 -13 8 -24 8 -38 1 -29 -15 -40 -4
-40 40 0 21 -10 55 -23 76 -32 56 -90 134 -98 134 -4 0 -18 19 -32 43 -14 23
-41 58 -61 76 -20 19 -36 43 -36 52 0 22 46 59 74 59 34 0 169 52 199 77 16
13 41 26 55 29 45 9 75 24 89 44 10 13 32 21 73 26 33 4 63 11 67 17 22 36
-124 53 -149 18z"/>
<path d="M5475 3780 c-9 -14 4 -69 22 -96 10 -16 11 -28 4 -48 -10 -25 3 -84
50 -238 12 -38 11 -56 -15 -224 -9 -55 -19 -152 -21 -215 -3 -62 -7 -132 -8
-154 -1 -22 -8 -55 -16 -73 -12 -29 -12 -40 2 -85 9 -29 19 -82 23 -118 5 -55
3 -72 -12 -97 -14 -26 -15 -33 -5 -46 20 -23 48 -19 67 9 12 18 25 25 49 25
43 0 60 22 57 78 -2 48 -30 100 -78 141 -30 26 -27 61 8 98 19 20 22 41 30
220 6 125 14 209 22 228 8 17 19 47 26 67 6 21 16 40 21 43 16 11 10 57 -17
114 -15 31 -33 63 -40 72 -8 9 -17 40 -21 70 -3 32 -13 63 -25 75 -10 12 -23
37 -29 57 -5 19 -26 52 -45 71 -40 40 -40 40 -49 26z"/>
<path d="M4636 3624 c-9 -22 3 -32 14 -14 12 19 12 30 1 30 -5 0 -12 -7 -15
-16z"/>
<path d="M4562 3548 c-20 -32 -123 -128 -138 -128 -3 0 -32 -27 -63 -59 -31
-33 -67 -65 -82 -73 -26 -13 -109 -99 -109 -113 0 -4 -13 -23 -30 -42 -16 -18
-30 -39 -30 -46 0 -7 -18 -29 -40 -50 -22 -20 -40 -45 -40 -55 0 -26 -68 -88
-114 -102 -30 -10 -51 -10 -100 0 -72 14 -92 22 -216 85 -97 50 -129 58 -282
73 -97 10 -118 21 -118 63 0 22 7 32 30 44 17 9 30 20 30 25 0 5 17 20 38 33
60 39 142 117 142 137 0 10 15 38 33 62 29 38 87 146 87 162 0 3 -11 6 -24 6
-27 0 -66 -42 -66 -70 0 -9 -11 -27 -25 -40 -14 -13 -25 -32 -25 -43 0 -22
-52 -77 -73 -77 -8 0 -21 -7 -28 -16 -12 -15 -92 -71 -198 -139 -93 -59 -149
-106 -154 -127 -7 -25 -1 -38 18 -38 7 0 42 -16 77 -35 165 -91 147 -85 252
-78 66 4 105 2 128 -7 39 -14 147 -64 200 -91 20 -10 43 -19 51 -19 7 0 28
-11 47 -25 30 -22 43 -25 124 -25 117 0 133 5 141 41 4 16 17 42 29 57 13 15
35 48 50 75 16 26 31 47 36 47 4 0 14 14 21 32 13 32 25 48 65 91 12 12 25 33
29 47 4 14 17 35 29 47 12 12 35 37 51 57 17 20 35 36 40 36 6 0 48 41 95 91
47 50 102 102 123 115 33 21 37 29 37 64 0 50 -20 53 -48 8z"/>
<path d="M4754 3551 c-4 -17 -14 -31 -24 -34 -12 -3 -21 -18 -26 -41 -3 -20
-15 -41 -25 -47 -11 -5 -19 -17 -19 -26 0 -13 3 -14 12 -5 7 7 20 12 30 12 23
0 50 42 52 79 1 16 9 38 19 48 21 24 22 43 2 43 -9 0 -18 -12 -21 -29z"/>
<path d="M8308 3464 c-32 -21 -38 -30 -38 -59 0 -29 6 -39 33 -55 44 -27 61
-25 91 11 41 49 32 86 -29 117 -16 7 -28 4 -57 -14z"/>
<path d="M4569 3333 c-26 -27 -69 -66 -95 -88 -81 -68 -140 -133 -175 -191
-19 -31 -44 -67 -56 -81 -13 -14 -23 -29 -23 -34 0 -12 -112 -154 -172 -219
-16 -16 -28 -34 -28 -39 0 -31 89 -76 173 -86 67 -9 130 -46 166 -100 13 -19
35 -38 49 -42 32 -8 226 5 276 18 34 9 41 8 59 -9 11 -11 17 -27 14 -35 -3 -8
-38 -27 -79 -42 -40 -15 -78 -32 -84 -37 -30 -23 26 -78 79 -78 13 0 41 13 61
29 24 19 54 32 86 36 53 7 62 18 30 35 -12 6 -20 21 -20 36 0 14 -11 34 -25
47 -14 12 -40 36 -58 52 -34 33 -134 78 -164 74 -43 -6 -122 16 -176 47 -32
19 -63 34 -68 34 -5 0 -34 18 -64 40 -39 28 -55 47 -55 63 0 20 59 124 120
212 37 54 70 105 84 133 8 15 27 34 42 42 29 16 114 95 114 107 0 4 13 21 29
38 16 16 33 42 36 58 11 43 -20 35 -76 -20z"/>
<path d="M1442 3283 c-11 -21 -23 -53 -27 -71 -8 -39 -63 -78 -124 -88 -22 -4
-48 -12 -56 -18 -26 -19 7 -52 76 -77 60 -22 109 -65 109 -97 0 -9 9 -36 20
-59 29 -66 80 -52 80 22 0 26 35 90 61 112 8 6 31 14 53 18 44 9 76 36 76 65
0 14 -11 22 -42 30 -101 25 -128 51 -152 149 -8 35 -16 47 -33 49 -17 3 -26
-6 -41 -35z"/>
<path d="M5759 2408 c-34 -7 -60 -23 -103 -64 -54 -50 -62 -54 -107 -54 -55 0
-67 -10 -40 -34 12 -11 39 -17 87 -19 61 -2 69 -4 72 -22 3 -24 -100 -120
-164 -153 -23 -12 -51 -36 -62 -55 -14 -24 -29 -36 -52 -41 -18 -3 -52 -23
-75 -44 -24 -20 -53 -44 -65 -52 -12 -8 -22 -24 -23 -35 -3 -30 32 -31 60 -1
13 14 32 26 42 26 10 0 26 9 36 20 10 11 23 20 30 20 6 0 21 11 33 25 13 14
33 25 47 25 14 0 28 7 32 15 3 9 19 23 36 32 17 8 37 22 45 29 7 8 24 14 37
14 15 0 26 7 30 20 3 11 28 31 56 44 39 20 133 72 147 82 6 4 11 199 6 217 -6
19 -32 20 -105 5z"/>
<path d="M4554 2191 c-16 -11 -59 -25 -95 -30 -35 -5 -77 -16 -94 -25 -16 -9
-40 -16 -51 -16 -12 0 -52 -11 -88 -25 -37 -14 -82 -25 -102 -25 -19 0 -55 -9
-79 -20 -25 -11 -67 -21 -95 -21 -74 -2 -83 -13 -84 -100 l-1 -74 60 -6 c33
-3 75 -13 93 -23 36 -19 113 -19 119 0 2 6 -12 21 -32 32 -38 23 -46 49 -17
59 9 4 34 17 54 30 22 13 54 23 75 23 21 0 70 10 108 21 39 11 107 30 152 43
45 12 99 35 121 49 21 15 45 27 54 27 8 0 21 6 27 14 6 7 32 16 57 19 28 3 51
12 59 23 22 29 18 34 -23 34 -22 0 -72 3 -113 6 -64 4 -78 2 -105 -15z"/>
<path d="M5850 2090 c-12 -16 -28 -30 -36 -30 -8 0 -22 -9 -31 -20 -10 -11
-22 -20 -28 -20 -7 0 -22 -11 -34 -24 -13 -13 -35 -27 -49 -31 -14 -3 -32 -15
-40 -26 -7 -11 -40 -33 -72 -49 -33 -17 -64 -39 -70 -50 -6 -11 -20 -20 -32
-20 -12 0 -47 -22 -78 -49 -34 -29 -68 -51 -86 -53 -21 -2 -30 -9 -32 -25 -3
-19 1 -23 21 -23 37 0 89 25 114 54 13 14 30 26 38 26 22 0 172 76 205 104 34
28 185 106 206 106 8 0 24 -6 37 -12 33 -19 126 -109 141 -138 41 -77 80 -147
92 -165 31 -44 6 -95 -68 -142 -7 -4 -21 -20 -31 -36 -16 -24 -16 -28 -2 -33
8 -4 27 2 43 12 15 10 51 21 80 25 29 4 60 13 69 21 9 7 32 18 52 24 32 9 36
13 33 40 -2 16 -11 41 -22 55 -10 15 -26 42 -35 60 -8 19 -22 45 -30 59 -8 14
-15 34 -15 45 0 11 -9 31 -20 45 -11 14 -20 31 -20 38 0 8 -42 55 -92 107 -51
51 -105 107 -121 124 -34 39 -60 39 -87 1z"/>
<path d="M5155 1789 c-4 -6 -4 -13 -1 -16 8 -8 36 5 36 17 0 13 -27 13 -35 -1z"/>
<path d="M3760 1747 c-31 -24 -66 -48 -80 -52 -28 -8 -80 -53 -80 -69 0 -5 10
-30 21 -54 27 -55 36 -126 19 -147 -9 -10 -31 -15 -74 -15 -44 0 -74 -7 -111
-25 -37 -18 -67 -24 -115 -25 -58 0 -69 -3 -98 -29 -24 -23 -32 -38 -32 -64 0
-19 -8 -45 -18 -58 -23 -29 -34 -71 -26 -93 5 -14 38 -16 263 -15 261 0 357 7
333 23 -7 4 -16 6 -18 3 -3 -3 -20 -1 -37 4 -18 5 -75 16 -127 23 -229 34
-232 75 -10 136 32 9 62 29 108 74 62 60 63 62 74 136 10 70 13 78 56 120 l47
45 70 -2 c45 -2 88 3 120 14 89 30 85 37 -28 48 -50 5 -75 13 -96 30 -15 14
-46 27 -67 31 -36 5 -45 2 -94 -39z"/>
<path d="M6269 1431 c-24 -16 -61 -32 -82 -35 -23 -4 -43 -16 -53 -31 -10 -15
-30 -27 -50 -31 -20 -4 -33 -11 -31 -18 5 -14 45 -13 165 3 101 14 107 13 207
-36 77 -38 138 -73 160 -93 11 -10 30 -21 42 -24 26 -8 83 -71 83 -91 0 -26
-80 -67 -159 -81 -42 -7 -123 -14 -181 -14 -109 -1 -206 -14 -375 -48 -180
-36 -279 -53 -345 -57 -162 -11 -233 -33 -174 -55 42 -16 161 -3 195 22 24 18
45 20 235 21 177 2 213 5 234 19 20 13 62 18 210 24 139 5 198 11 239 25 43
15 84 19 202 19 90 0 150 4 154 10 7 12 -23 63 -80 137 -22 29 -58 77 -79 108
-25 35 -49 58 -65 62 -14 3 -30 9 -36 13 -9 7 -58 35 -145 81 -19 11 -64 37
-99 59 -77 48 -111 51 -172 11z"/>
<path d="M2925 1021 c-16 -4 -40 -13 -51 -19 -12 -6 -63 -16 -112 -22 -50 -5
-103 -15 -117 -20 -15 -6 -47 -10 -73 -10 -44 0 -49 -3 -124 -77 -43 -43 -100
-100 -128 -127 -28 -27 -62 -71 -76 -97 -49 -89 -52 -90 -220 -94 -82 -2 -210
-9 -284 -15 -74 -6 -258 -13 -407 -17 -289 -6 -321 -11 -297 -50 10 -17 31
-18 295 -16 156 1 1477 5 2934 9 1988 5 2843 3 3422 -6 727 -12 774 -12 798 4
25 16 26 19 10 36 -14 16 -43 18 -303 23 -158 3 -345 11 -417 17 -71 6 -174
11 -228 11 -99 1 -127 11 -127 44 0 8 -9 29 -20 47 -11 18 -20 42 -20 53 0 11
-12 38 -25 60 -14 22 -25 52 -25 68 0 15 -9 36 -20 47 -18 18 -33 20 -172 20
-164 0 -302 -13 -383 -35 -80 -22 -198 -35 -316 -35 -83 0 -118 -4 -142 -16
-22 -12 -74 -19 -172 -25 -93 -5 -155 -14 -185 -25 -33 -13 -90 -19 -215 -24
-142 -6 -175 -10 -202 -26 -18 -10 -33 -25 -33 -33 0 -19 178 -9 250 15 39 13
71 15 128 11 59 -4 80 -2 93 9 13 11 25 12 65 3 58 -13 128 -13 154 1 10 6 37
10 60 10 22 0 56 7 76 15 51 21 675 39 853 24 44 -4 45 -5 65 -60 32 -89 38
-86 -200 -94 -226 -8 -1561 1 -1586 10 -9 4 -19 2 -22 -3 -4 -6 -563 -10
-1489 -11 -1467 -2 -1483 -2 -1501 18 -25 27 -13 56 42 109 75 72 113 88 287
122 88 17 190 40 226 50 52 16 110 21 265 26 110 3 215 10 234 14 19 5 63 12
97 16 74 8 100 28 51 39 -33 7 -315 22 -558 30 -69 2 -138 1 -155 -4z"/>
</g>
</svg>
