<?xml version="1.0" standalone="no"?>
<!DOCTYPE svg PUBLIC "-//W3C//DTD SVG 20010904//EN"
 "http://www.w3.org/TR/2001/REC-SVG-20010904/DTD/svg10.dtd">
<svg version="1.0" xmlns="http://www.w3.org/2000/svg"
 width="900.000000pt" height="900.000000pt" viewBox="0 0 900.000000 900.000000"
 preserveAspectRatio="xMidYMid meet">
<metadata>
Created by potrace 1.10, written by Peter Selinger 2001-2011
</metadata>
<g transform="translate(0.000000,900.000000) scale(0.100000,-0.100000)"
fill="#AA22DD" stroke="none">
<path d="M1730 8805 c-13 -14 -34 -45 -45 -68 -15 -30 -39 -54 -86 -84 -113
-73 -108 -67 -81 -96 13 -14 38 -31 55 -38 44 -17 95 -66 119 -114 27 -52 47
-75 68 -75 17 0 55 49 77 101 13 30 46 58 123 102 30 18 55 39 55 47 0 8 -35
34 -78 60 -72 42 -81 50 -118 118 -22 39 -45 72 -53 72 -7 0 -23 -11 -36 -25z"/>
<path d="M5512 8788 c-18 -23 -32 -46 -32 -52 0 -24 -142 -136 -172 -136 -16
0 -7 -27 15 -48 12 -11 38 -28 58 -36 39 -16 74 -54 120 -129 16 -26 36 -50
45 -54 20 -7 47 23 75 85 19 40 87 102 113 102 21 0 80 56 72 68 -4 7 -26 22
-48 35 -93 50 -114 68 -129 102 -21 48 -61 105 -73 105 -7 0 -26 -19 -44 -42z"/>
<path d="M7065 8576 c-5 -2 -27 -7 -47 -11 -23 -3 -38 -12 -38 -20 0 -14 9
-18 65 -29 32 -7 43 -12 175 -75 106 -51 135 -69 236 -148 140 -108 262 -254
347 -415 45 -86 97 -221 97 -253 0 -9 10 -37 22 -63 20 -43 23 -66 26 -252 4
-203 -1 -261 -32 -350 -8 -25 -27 -83 -42 -130 -15 -47 -30 -89 -34 -95 -4 -5
-27 -46 -50 -90 -78 -146 -207 -298 -337 -397 -81 -61 -201 -134 -245 -147
-20 -7 -42 -18 -48 -26 -6 -7 -26 -17 -43 -21 -55 -12 -137 -52 -137 -67 0
-21 45 -27 194 -27 131 1 157 4 271 35 33 9 96 26 140 37 122 33 276 115 410
220 103 79 253 248 293 328 7 14 25 46 41 71 15 25 34 63 41 85 7 21 19 50 27
63 21 33 60 180 72 274 14 101 14 304 0 404 -13 97 -44 215 -69 268 -67 142
-93 194 -112 225 -31 51 -117 156 -184 223 -60 62 -199 177 -214 177 -5 0 -21
10 -37 23 -36 29 -221 113 -293 132 -133 37 -194 46 -335 50 -82 3 -154 3
-160 1z"/>
<path d="M3215 8090 c-17 -19 -17 -22 -3 -37 30 -29 74 10 48 42 -16 20 -23
19 -45 -5z"/>
<path d="M4305 7124 c-14 -15 -25 -33 -25 -41 0 -14 6 -17 50 -27 30 -6 110
-66 110 -82 0 -6 -10 -15 -22 -21 -13 -6 -45 -31 -73 -55 -27 -25 -60 -50 -72
-56 -26 -14 -132 -16 -200 -2 -28 5 -102 12 -165 16 -105 6 -117 5 -157 -15
-23 -12 -66 -48 -94 -79 -29 -31 -64 -69 -79 -85 -16 -17 -28 -34 -28 -39 0
-20 32 -19 53 0 16 15 46 25 96 32 71 10 106 16 143 26 12 4 22 -6 35 -33 l18
-38 170 1 c132 1 180 5 214 17 48 19 136 23 146 7 4 -6 -10 -17 -29 -25 -42
-18 -43 -23 -16 -58 11 -14 20 -30 20 -36 0 -6 13 -26 30 -44 50 -57 23 -61
-122 -16 -90 28 -104 30 -145 20 -57 -15 -96 -43 -139 -103 -23 -31 -45 -49
-65 -53 -34 -8 -34 -28 0 -33 23 -4 96 27 144 61 25 17 39 19 105 13 102 -9
147 -24 180 -57 23 -23 41 -29 116 -39 98 -14 134 -8 216 36 25 13 48 24 53
24 10 0 85 33 147 65 69 35 100 38 135 15 17 -11 38 -20 48 -20 19 0 22 -19 8
-68 -10 -34 -70 -132 -81 -132 -3 0 -29 -35 -58 -79 -46 -70 -52 -84 -52 -132
0 -43 8 -71 40 -134 22 -44 40 -86 40 -93 0 -27 45 -98 94 -152 29 -30 64 -74
80 -97 45 -68 71 -210 44 -245 -15 -20 -150 -68 -189 -68 -15 0 -61 17 -101
38 -81 41 -111 76 -223 256 -33 54 -72 113 -87 132 -15 20 -30 44 -33 55 -4
11 -21 27 -38 36 -18 9 -43 25 -57 35 -14 11 -56 40 -95 66 l-70 46 -109 4
c-108 4 -109 4 -171 45 -35 23 -76 50 -92 59 -15 10 -68 43 -117 73 -48 30
-106 60 -127 65 -21 6 -41 15 -44 20 -3 5 -29 14 -58 20 -45 10 -69 9 -187
-13 -74 -15 -182 -29 -240 -32 l-105 -7 -65 36 c-36 20 -87 48 -115 62 -162
81 -248 133 -337 204 -32 25 -83 63 -114 85 -31 22 -66 50 -78 61 -48 48 -88
64 -163 64 -39 0 -74 -4 -77 -9 -3 -4 18 -30 48 -57 49 -45 54 -54 66 -117 8
-37 21 -74 30 -82 21 -19 104 -41 187 -50 70 -8 44 11 315 -233 81 -73 161
-150 179 -171 17 -22 65 -69 107 -106 l76 -68 78 6 c43 4 88 11 99 18 20 10
74 21 374 70 189 32 209 33 257 16 23 -8 79 -25 122 -38 75 -22 82 -27 135
-89 31 -37 67 -85 81 -109 60 -102 77 -119 162 -160 46 -23 88 -41 93 -41 5 0
27 -8 49 -19 23 -10 70 -32 106 -49 47 -22 91 -55 160 -121 72 -70 104 -94
133 -101 21 -4 41 -10 44 -13 7 -8 -40 -79 -71 -107 -29 -26 -86 -133 -86
-160 0 -9 -8 -26 -17 -39 -16 -23 -17 -23 -24 -5 -4 10 -5 29 -2 42 3 12 2 34
-1 48 l-7 26 -117 -6 c-256 -15 -367 -27 -392 -43 -14 -9 -47 -35 -75 -58 -50
-42 -104 -75 -125 -75 -5 0 -10 9 -10 20 0 30 -33 39 -167 46 -110 5 -123 4
-192 -20 -41 -14 -81 -26 -89 -26 -8 0 -40 -11 -71 -24 -31 -13 -96 -36 -146
-51 -49 -14 -110 -35 -135 -46 -25 -10 -67 -23 -95 -28 -63 -12 -116 -34 -178
-74 -45 -29 -48 -34 -42 -63 8 -43 2 -44 -247 -44 -113 0 -213 -3 -222 -6 -24
-9 -19 -56 9 -94 14 -19 25 -38 25 -42 0 -5 16 -33 35 -63 19 -30 46 -77 59
-104 14 -27 37 -59 52 -70 l27 -21 -21 -23 c-25 -27 -52 -88 -52 -119 0 -15
41 -62 130 -149 103 -101 135 -139 156 -185 35 -80 44 -108 54 -182 9 -70 28
-98 74 -110 23 -6 34 -4 48 10 20 20 48 24 48 7 0 -5 -16 -17 -35 -25 -19 -8
-35 -19 -35 -26 0 -6 -23 -35 -50 -64 -66 -69 -66 -90 0 -133 28 -18 80 -48
116 -67 61 -31 72 -34 157 -34 108 0 143 -9 257 -62 47 -23 102 -47 123 -54
21 -7 48 -20 60 -29 16 -11 49 -15 130 -15 l108 0 44 45 c24 25 45 51 48 58 2
6 7 9 11 6 7 -7 -39 -105 -54 -114 -16 -10 -12 -62 6 -80 25 -24 71 -45 147
-67 64 -17 116 -44 142 -72 6 -6 25 -23 43 -39 33 -26 36 -27 165 -27 157 0
174 -7 127 -47 -90 -75 -84 -66 -67 -99 9 -17 23 -36 31 -43 26 -21 19 -29
-38 -45 -30 -9 -58 -20 -61 -25 -3 -6 -31 -15 -63 -21 -31 -6 -82 -19 -112
-30 -30 -10 -91 -27 -135 -39 -44 -11 -107 -27 -140 -36 -33 -9 -89 -24 -124
-34 -78 -21 -93 -40 -95 -118 -1 -57 0 -58 36 -78 21 -11 36 -24 35 -30 -2 -5
-32 -12 -68 -15 -53 -4 -73 -11 -113 -40 -26 -19 -63 -45 -82 -57 -57 -39 -65
-58 -52 -135 18 -105 10 -119 -87 -144 -44 -11 -89 -25 -100 -31 -11 -6 -51
-16 -90 -22 -38 -6 -81 -19 -95 -29 -29 -22 -70 -125 -77 -194 -6 -54 -8 -53
121 -67 49 -6 91 -12 93 -15 8 -7 -94 -15 -267 -20 -123 -4 -183 -10 -235 -25
-38 -10 -92 -22 -120 -26 -144 -19 -249 -46 -279 -73 -104 -92 -227 -225 -255
-275 -38 -68 -70 -87 -143 -87 -29 0 -105 -7 -168 -14 -63 -8 -212 -19 -330
-25 -118 -6 -240 -14 -270 -18 l-55 -7 45 -7 c59 -10 6861 -10 6920 0 l45 7
-65 7 c-36 4 -182 14 -325 22 -262 16 -430 35 -444 51 -4 5 -22 45 -40 89 -71
172 -94 214 -126 227 -22 9 -103 12 -307 11 -268 -2 -324 4 -264 27 14 5 66
12 116 16 49 4 97 12 106 19 15 10 14 16 -10 61 -57 104 -173 254 -197 254 -8
0 -186 99 -284 158 -52 31 -67 35 -122 34 -35 0 -65 3 -68 7 -2 4 9 20 24 35
25 24 28 32 21 57 -9 30 -79 182 -128 276 -26 49 -221 261 -260 282 -22 11
-68 3 -83 -15 -13 -16 -39 -19 -39 -5 0 5 8 12 18 16 9 3 30 22 46 43 27 36
28 39 23 130 -3 51 -11 100 -17 108 -9 10 -35 14 -91 14 l-79 0 0 38 c0 57
-19 112 -58 171 l-36 54 22 61 c18 48 25 101 33 237 8 145 15 190 39 270 l30
96 -21 58 c-11 32 -29 76 -40 96 -24 48 -25 125 -3 150 16 18 24 66 64 384 6
44 13 160 17 258 l6 178 27 14 c24 12 28 22 34 76 14 141 3 214 -45 281 -19
26 -23 50 -30 174 -5 92 -19 196 -39 294 -28 138 -49 366 -50 537 0 34 -8 51
-46 98 -37 45 -62 64 -123 92 -110 52 -147 80 -176 128 -29 51 -30 62 -10 85
9 9 21 37 28 61 12 41 15 44 42 41 17 -2 44 -15 62 -28 48 -36 66 -31 116 34
34 45 45 70 51 112 4 29 16 64 27 78 26 34 25 101 -2 137 l-22 27 28 25 c24
23 27 31 22 70 -3 31 -14 54 -33 74 -49 51 -84 66 -184 78 -52 6 -120 20 -150
31 -67 24 -158 25 -208 4 -20 -8 -49 -16 -64 -16 -28 -1 -133 37 -158 57 -8 7
-46 29 -85 51 -38 21 -72 41 -75 45 -14 20 -74 29 -201 29 -138 0 -140 0 -164
-26z m934 -1046 c5 -13 19 -31 30 -40 23 -20 30 -83 9 -76 -14 5 -68 105 -68
126 0 20 20 13 29 -10z m238 -664 c4 -23 16 -46 30 -57 23 -19 31 -51 14 -62
-13 -7 -41 22 -41 43 0 9 -7 26 -15 36 -17 23 -21 106 -5 90 6 -6 14 -28 17
-50z m-142 -73 c3 -16 15 -37 26 -47 20 -18 27 -78 8 -72 -21 7 -69 111 -63
135 8 29 21 21 29 -16z m82 -156 c8 -22 -6 -33 -17 -15 -13 20 -12 30 0 30 6
0 13 -7 17 -15z m-611 -532 c-11 -11 -19 6 -11 24 8 17 8 17 12 0 3 -10 2 -21
-1 -24z m-1853 -608 c1 -6 -13 -11 -30 -13 -37 -4 -45 14 -10 21 29 5 38 4 40
-8z m1207 -1124 c0 -23 -14 -41 -31 -41 -22 0 -23 4 -9 31 11 19 40 27 40 10z
m1566 -876 c-10 -8 -23 -12 -28 -9 -14 9 2 24 25 24 21 -1 21 -1 3 -15z"/>
<path d="M292 7078 c-7 -7 -12 -25 -12 -40 0 -38 41 -56 76 -33 26 17 30 35
14 66 -12 22 -59 26 -78 7z"/>
<path d="M1713 5953 l-93 -4 -32 -46 c-30 -43 -53 -80 -147 -240 -19 -32 -55
-83 -79 -112 -41 -51 -43 -56 -26 -68 13 -10 39 -12 94 -8 108 9 103 7 250 95
74 44 144 83 156 86 12 3 46 -7 80 -23 72 -36 190 -100 224 -122 14 -9 57 -32
95 -52 301 -156 287 -144 345 -295 23 -60 38 -84 56 -93 16 -7 106 -11 259
-11 l234 0 111 63 c61 34 121 68 133 75 30 18 170 8 245 -18 31 -11 98 -24
147 -30 102 -11 200 -39 242 -67 54 -37 110 -56 145 -49 123 24 386 33 453 15
73 -20 114 -22 138 -6 12 8 42 18 66 22 64 11 32 25 -59 25 -57 0 -95 7 -160
30 -109 38 -186 40 -288 5 -41 -14 -88 -25 -105 -25 -18 1 -67 20 -112 45 -44
24 -116 61 -160 84 -44 22 -87 45 -95 50 -34 22 -228 104 -269 113 -29 7 -81
7 -156 0 -94 -8 -132 -17 -217 -50 -137 -53 -185 -64 -219 -49 -15 7 -120 116
-235 242 -150 166 -221 238 -258 259 -28 16 -64 39 -79 52 -16 13 -32 24 -36
24 -5 0 -39 20 -77 45 l-68 45 -206 -2 c-113 -1 -247 -4 -297 -5z"/>
<path d="M6902 4906 c-13 -7 -40 -44 -61 -81 -38 -71 -61 -91 -169 -147 -35
-18 -42 -27 -40 -47 2 -20 19 -33 82 -66 72 -37 81 -45 116 -105 68 -116 96
-134 126 -77 9 17 25 48 36 68 26 50 63 82 138 121 51 26 66 39 68 59 2 20 -5
29 -40 47 -97 50 -133 79 -153 117 -22 42 -74 125 -78 125 -1 -1 -12 -7 -25
-14z"/>
<path d="M8136 4871 c-14 -22 -38 -43 -55 -49 -17 -6 -31 -18 -31 -26 0 -18
114 -136 131 -136 13 0 139 126 139 139 0 5 -16 15 -35 21 -22 7 -41 23 -50
41 -15 27 -43 49 -64 49 -6 0 -22 -17 -35 -39z"/>
<path d="M836 4632 c-13 -22 -47 -55 -75 -75 -28 -21 -51 -41 -51 -46 0 -5 23
-26 51 -47 28 -20 61 -54 75 -75 29 -46 44 -48 75 -13 49 55 75 80 108 106
l35 26 -29 24 c-16 12 -54 49 -85 81 -31 31 -61 57 -68 57 -6 0 -23 -17 -36
-38z"/>
<path d="M8318 3444 c-33 -18 -35 -33 -7 -68 26 -32 44 -33 65 -1 19 29 16 53
-11 71 -17 10 -25 10 -47 -2z"/>
<path d="M1429 3235 c-32 -57 -55 -78 -126 -114 -24 -12 -43 -28 -43 -36 0
-15 59 -65 77 -65 14 0 72 -67 103 -119 14 -23 31 -40 39 -39 8 2 25 23 38 48
30 57 68 97 115 121 32 16 58 45 58 63 0 3 -25 17 -56 32 -54 25 -85 58 -126
133 -9 17 -24 31 -32 31 -9 0 -30 -25 -47 -55z"/>
</g>
</svg>
