<?xml version="1.0" standalone="no"?>
<!DOCTYPE svg PUBLIC "-//W3C//DTD SVG 20010904//EN"
 "http://www.w3.org/TR/2001/REC-SVG-20010904/DTD/svg10.dtd">
<svg version="1.0" xmlns="http://www.w3.org/2000/svg"
 width="300.000000pt" height="300.000000pt" viewBox="0 0 300.000000 300.000000"
 preserveAspectRatio="xMidYMid meet">
<metadata>
Created by potrace 1.10, written by Peter Selinger 2001-2011
</metadata>
<g transform="translate(0.000000,300.000000) scale(0.050000,-0.050000)"
fill="#AA22DD" stroke="none">
<path d="M1145 5847 c-23 -32 -64 -71 -92 -86 l-51 -27 92 -89 c90 -88 146
-88 146 -2 0 9 28 31 63 49 l63 32 -64 40 c-35 23 -75 63 -89 91 l-27 50 -41
-58z"/>
<path d="M3668 5846 c-21 -35 -58 -73 -84 -85 -46 -21 -46 -22 39 -108 l86
-86 84 81 c72 70 80 85 52 102 -44 28 -91 76 -118 122 -21 36 -25 34 -59 -26z"/>
<path d="M4669 5702 c6 -11 38 -25 71 -32 436 -96 695 -748 475 -1194 -104
-209 -391 -456 -532 -456 -13 0 -23 -9 -23 -20 0 -30 202 -24 334 10 834 215
900 1370 95 1663 -133 48 -445 69 -420 29z"/>
<path d="M2883 4753 c-18 -21 -12 -32 27 -49 133 -61 -21 -151 -228 -133 -155
14 -156 13 -229 -51 -68 -60 -102 -121 -50 -88 58 35 180 44 192 13 9 -26 41
-28 193 -18 111 8 171 5 154 -6 -25 -15 -23 -26 7 -72 l36 -54 -55 13 c-147
37 -159 36 -227 -28 -75 -69 -72 -103 6 -53 60 40 148 42 202 6 78 -54 153
-52 297 9 127 54 212 61 212 18 0 -28 -45 -120 -59 -120 -6 0 -29 -31 -49 -69
-44 -81 -3 -210 110 -350 90 -113 88 -205 -7 -229 -110 -28 -164 7 -271 176
-103 162 -220 252 -328 252 -37 0 -110 31 -184 77 -165 103 -227 122 -334 102
-228 -44 -325 -12 -636 214 -86 63 -168 107 -198 107 l-51 0 42 -45 c23 -25
45 -67 48 -95 6 -42 23 -53 103 -70 81 -17 126 -49 296 -208 l202 -188 173 33
c386 72 445 62 568 -99 57 -75 106 -112 210 -160 74 -34 149 -78 165 -98 17
-20 55 -52 85 -70 l56 -34 -40 -51 c-22 -27 -51 -76 -64 -108 -24 -56 -24 -56
-32 -10 -13 73 -285 58 -397 -22 -42 -30 -81 -46 -87 -37 -55 86 -741 -89
-741 -189 0 -23 -33 -29 -160 -29 -187 0 -189 -3 -91 -164 38 -63 61 -120 50
-127 -43 -26 -17 -106 51 -160 75 -60 150 -193 150 -266 0 -56 43 -73 103 -42
27 13 14 -4 -28 -40 -41 -35 -75 -75 -75 -89 0 -39 148 -112 226 -112 38 0
118 -22 177 -50 126 -58 248 -65 302 -15 37 33 38 33 14 -20 -28 -62 0 -115
61 -115 19 0 68 -22 108 -50 52 -35 101 -50 166 -50 90 0 91 -1 57 -39 -21
-23 -30 -54 -22 -76 12 -40 -57 -66 -385 -147 -120 -30 -164 -100 -93 -151 35
-25 34 -27 -10 -27 -95 0 -181 -76 -181 -159 0 -74 -3 -77 -95 -101 -52 -13
-110 -28 -129 -33 -37 -10 -86 -134 -66 -167 7 -11 41 -22 76 -23 35 -2 -8
-10 -96 -17 -365 -32 -407 -46 -542 -189 l-122 -129 -218 -21 c-120 -12 -254
-24 -298 -28 -44 -3 973 -7 2260 -7 1326 0 2253 7 2140 16 -368 29 -356 25
-411 144 l-49 104 -210 8 c-205 7 -208 8 -116 30 l95 22 -61 94 c-67 102 -276
236 -369 236 -42 0 -46 5 -27 36 52 84 -188 423 -283 398 -40 -11 -41 -9 -9
26 52 57 33 168 -30 176 -108 13 -144 351 -61 571 10 27 5 71 -14 119 -25 63
-26 91 -7 156 13 43 29 170 35 283 6 113 23 233 39 268 36 80 35 123 -2 194
-17 32 -30 90 -30 130 0 40 -14 144 -30 230 -17 86 -30 204 -30 261 0 114 -30
157 -153 219 -71 36 -92 76 -75 145 13 52 46 62 84 24 30 -30 104 32 104 87 0
21 11 55 24 77 19 29 19 45 2 62 -17 17 -17 32 0 61 30 47 -1 102 -68 120
-163 46 -254 58 -303 39 -44 -17 -74 -9 -183 49 -138 73 -269 91 -309 42z"/>
<path d="M987 3820 l-102 -160 68 0 c38 0 114 26 175 60 123 70 107 73 379
-76 152 -83 181 -108 214 -180 l37 -84 171 0 c150 0 182 6 254 52 59 37 100
49 145 42 202 -31 322 -59 352 -80 36 -25 530 -31 554 -7 7 7 -13 13 -43 13
-31 0 -92 11 -135 24 -61 18 -100 18 -167 0 -84 -23 -93 -20 -289 78 -223 112
-330 123 -510 53 -99 -38 -106 -34 -270 150 -204 230 -291 275 -533 275 l-197
-1 -103 -159z"/>
<path d="M4567 3221 c-19 -33 -60 -70 -91 -83 -71 -29 -71 -49 3 -88 33 -17
70 -51 83 -75 39 -73 62 -75 107 -8 23 35 62 72 86 83 60 26 57 55 -11 94 -31
19 -68 57 -83 85 -36 66 -51 64 -94 -8z"/>
<path d="M5413 3238 c-36 -42 -36 -44 5 -85 l42 -42 55 55 c41 41 46 54 22 54
-18 0 -38 14 -44 30 -16 41 -38 38 -80 -12z"/>
<path d="M536 3065 l-52 -55 55 -54 56 -53 56 58 c31 32 52 61 48 64 -5 3 -32
25 -60 50 l-52 45 -51 -55z"/>
<path d="M953 2151 c-18 -26 -51 -54 -73 -61 -38 -12 -35 -19 42 -97 61 -60
87 -75 94 -54 5 16 38 54 71 85 34 31 50 56 35 56 -14 0 -51 27 -82 60 l-56
60 -31 -49z"/>
</g>
</svg>
