<?xml version="1.0" standalone="no"?>
<!DOCTYPE svg PUBLIC "-//W3C//DTD SVG 20010904//EN"
 "http://www.w3.org/TR/2001/REC-SVG-20010904/DTD/svg10.dtd">
<svg version="1.0" xmlns="http://www.w3.org/2000/svg"
 width="300.000000pt" height="300.000000pt" viewBox="0 0 300.000000 300.000000"
 preserveAspectRatio="xMidYMid meet">
<metadata>
Created by potrace 1.10, written by Peter Selinger 2001-2011
</metadata>
<g transform="translate(0.000000,300.000000) scale(0.050000,-0.050000)"
fill="#AA22DD" stroke="none">
<path d="M1140 5859 c-16 -38 -51 -72 -95 -90 -71 -29 -65 -89 8 -89 16 0 47
-31 70 -70 50 -86 66 -87 100 -9 15 33 47 66 71 72 87 22 96 62 21 94 -43 18
-78 51 -94 91 -32 78 -49 78 -81 1z"/>
<path d="M3672 5864 c-18 -35 -60 -77 -93 -95 -66 -34 -62 -61 13 -90 27 -10
57 -40 67 -67 29 -76 54 -77 98 -2 23 39 54 70 70 70 75 0 79 60 5 90 -39 17
-72 42 -72 56 0 79 -54 103 -88 38z"/>
<path d="M4625 5728 c-43 -20 -27 -48 27 -48 316 0 652 -427 653 -832 1 -366
-334 -808 -613 -808 -59 0 -107 -50 -64 -66 37 -15 237 2 352 30 768 183 928
1210 249 1607 -149 88 -514 158 -604 117z"/>
<path d="M2123 5413 c-17 -20 -14 -35 14 -60 44 -40 97 1 76 57 -15 37 -61 39
-90 3z"/>
<path d="M2852 4748 c-7 -17 -12 -34 -12 -37 0 -3 35 -12 79 -18 82 -14 131
-53 65 -53 -21 0 -54 -18 -75 -41 -34 -38 -51 -40 -221 -27 l-184 13 -87 -81
c-108 -101 -92 -120 52 -66 134 50 133 50 118 12 -16 -41 149 -41 313 2 130
33 259 20 275 -27 6 -18 -26 -21 -127 -11 -143 13 -147 9 -70 -82 35 -40 19
-41 -145 -1 -41 11 -71 3 -114 -28 -31 -24 -85 -43 -118 -43 -41 0 -61 -10
-61 -30 0 -40 138 -41 191 -1 43 33 141 23 227 -22 76 -39 108 -34 265 43 77
38 150 65 160 58 10 -6 32 -1 48 13 67 55 -4 -107 -88 -201 -91 -102 -65 -230
79 -395 52 -60 96 -193 72 -218 -88 -88 -248 2 -383 217 -65 102 -204 196
-291 196 -33 0 -115 34 -185 76 -189 115 -233 129 -336 106 -180 -40 -245 -34
-356 34 -57 35 -108 64 -114 64 -15 0 -235 165 -259 194 -22 27 -181 42 -203
20 -8 -8 14 -25 49 -38 44 -17 66 -41 75 -81 13 -58 72 -95 151 -95 40 0 95
-45 332 -267 105 -100 133 -116 180 -107 488 93 569 84 690 -77 56 -74 107
-114 201 -157 69 -32 130 -63 135 -70 33 -42 146 -121 160 -112 42 26 34 -29
-11 -71 -27 -25 -49 -56 -49 -67 -1 -115 -221 -410 -308 -413 -48 -1 -154
-109 -141 -144 49 -127 387 80 548 336 91 144 159 192 212 148 38 -31 25 -371
-20 -549 -34 -131 -41 -1104 -8 -1144 17 -20 10 -38 -29 -74 -37 -34 -48 -60
-40 -93 9 -32 5 -41 -11 -31 -13 8 -18 23 -12 33 24 40 -15 16 -61 -36 -84
-95 -58 -198 33 -128 26 21 144 94 262 163 214 126 215 127 215 203 0 89 -33
100 -130 40 -91 -55 -170 -71 -170 -33 0 19 19 30 50 30 28 0 50 9 50 20 0 11
14 20 30 20 40 0 39 79 -2 137 -24 34 -27 52 -10 69 12 12 22 74 22 138 0 63
14 151 32 194 25 63 26 88 7 123 -13 25 -30 68 -39 97 -9 29 -22 68 -30 87 -9
21 -5 35 8 35 12 0 22 -16 23 -35 0 -33 1 -33 21 0 11 20 26 148 32 285 11
229 26 292 53 225 5 -14 11 25 11 86 1 69 -9 126 -27 150 -17 22 -30 84 -31
139 -1 55 -14 159 -30 230 -16 72 -29 180 -29 242 -1 121 -29 162 -155 226
-82 41 -109 88 -79 136 18 29 17 41 -6 56 -17 10 -24 24 -17 31 8 7 40 -6 73
-29 76 -54 91 -53 120 8 12 28 34 73 47 101 34 72 0 120 -82 116 -41 -2 -62 6
-62 25 0 32 91 39 110 8 22 -36 50 -21 50 27 0 64 -54 107 -150 119 -44 6
-105 17 -136 25 -35 9 -76 4 -105 -11 -42 -23 -60 -18 -170 47 -138 83 -323
105 -347 41z m674 -713 c20 -40 25 -72 13 -84 -21 -21 -20 -23 -64 74 -45 98
4 107 51 10z m126 -350 c7 -30 36 -98 64 -150 48 -91 46 -166 -3 -86 -77 129
-113 206 -113 246 0 63 37 56 52 -10z m-43 -167 c58 -116 63 -141 23 -126 -35
14 -92 129 -92 186 0 63 13 52 69 -60z"/>
<path d="M170 4719 c-9 -28 -4 -50 13 -61 46 -30 87 -10 87 42 0 68 -80 82
-100 19z"/>
<path d="M1030 3888 c-30 -51 -85 -127 -123 -169 -38 -42 -61 -80 -53 -85 31
-19 200 37 279 91 97 67 109 67 213 6 46 -27 143 -79 214 -116 113 -59 134
-79 159 -151 l30 -84 181 0 c162 0 189 5 258 52 61 42 92 50 149 41 168 -28
266 -54 340 -91 69 -36 91 -38 208 -18 94 15 149 15 193 0 47 -17 77 -16 124
4 70 29 43 52 -62 52 -32 0 -81 9 -109 20 -34 13 -83 12 -146 -2 -92 -21 -101
-19 -305 80 -232 111 -278 114 -500 32 l-89 -33 -69 76 c-324 361 -366 387
-637 387 l-201 0 -54 -92z"/>
<path d="M4568 3233 c-21 -43 -56 -75 -100 -91 -86 -31 -86 -54 2 -91 41 -17
80 -52 95 -85 38 -87 62 -91 101 -14 23 44 63 82 105 100 87 36 87 59 -1 88
-48 16 -80 44 -102 91 -41 86 -60 87 -100 2z"/>
<path d="M5405 3252 c-56 -59 -22 -152 56 -152 52 0 123 106 85 127 -20 11
-43 32 -52 46 -22 37 -37 34 -89 -21z"/>
<path d="M2912 3239 c-32 -9 -93 -51 -135 -92 -42 -41 -82 -69 -89 -62 -7 7 3
29 22 48 76 76 -190 79 -330 5 -16 -9 -97 -36 -180 -60 -253 -74 -277 -115
-72 -122 67 -3 -15 -9 -183 -15 l-304 -11 74 -115 c78 -121 139 -138 264 -75
71 36 199 78 311 102 66 14 134 41 150 59 24 27 50 31 140 19 74 -10 115 -7
125 8 8 13 16 14 17 2 12 -80 10 -110 -5 -110 -9 0 -17 -8 -17 -18 0 -29 74
-2 112 40 19 21 46 38 61 38 15 0 27 9 27 20 0 11 11 20 25 20 67 0 295 246
295 319 0 25 -224 25 -308 0z"/>
<path d="M560 3111 c0 -16 -20 -40 -45 -53 -25 -13 -48 -26 -52 -29 -4 -4 24
-37 62 -75 l69 -69 68 70 c48 50 60 74 41 80 -15 6 -46 31 -69 57 -47 55 -74
61 -74 19z"/>
<path d="M2413 2786 c-8 -8 -60 -17 -116 -22 -55 -4 -159 -29 -229 -56 -71
-26 -160 -48 -198 -48 -128 0 -134 -69 -16 -178 103 -95 146 -169 146 -252 0
-104 181 -14 247 123 17 35 58 80 92 99 33 20 61 44 61 53 0 10 11 11 25 3 19
-10 19 -8 2 11 -29 32 -167 63 -167 38 0 -11 -10 -13 -22 -6 -15 10 -18 0 -9
-28 11 -33 5 -43 -23 -43 -30 1 -31 4 -6 20 27 17 15 29 -25 22 -45 -7 -3 37
85 88 61 36 100 72 100 94 0 20 13 36 29 36 16 0 35 10 42 21 16 26 2 45 -18
25z"/>
<path d="M3076 2539 c-36 -34 -55 -57 -41 -50 14 8 25 4 25 -8 0 -19 -26 -29
-63 -24 -26 3 -277 -241 -266 -259 7 -11 0 -17 -15 -13 -14 3 -24 -6 -21 -20
3 -14 -2 -23 -10 -21 -8 3 -38 -11 -66 -29 -48 -32 -57 -32 -134 -2 -74 29
-131 87 -86 87 10 0 25 29 33 65 49 202 0 203 -172 2 -27 -32 -102 -92 -165
-133 -63 -41 -115 -82 -115 -91 0 -34 158 -103 237 -103 45 0 131 -22 191 -50
108 -49 272 -68 272 -31 0 41 191 294 292 387 60 54 108 108 108 119 0 12 12
36 27 53 97 112 70 216 -31 121z"/>
<path d="M3162 2359 c-27 -54 -54 -99 -60 -99 -22 0 -216 -190 -238 -232 -12
-23 -54 -80 -93 -127 -91 -108 -89 -135 9 -161 44 -12 98 -40 119 -64 34 -36
55 -40 150 -30 121 12 163 -12 82 -49 -56 -26 -69 -77 -20 -77 18 0 50 10 72
22 22 11 54 16 71 9 53 -20 -11 -71 -91 -72 -174 -3 -573 -127 -579 -180 -5
-44 5 -53 90 -76 129 -34 155 -50 160 -95 3 -32 2 -33 -7 -3 -7 26 -31 35 -88
35 -42 0 -100 10 -128 23 -81 37 -218 -61 -190 -136 31 -82 12 -102 -119 -117
-132 -15 -155 -32 -174 -127 l-13 -63 266 0 c256 0 264 1 232 37 -60 66 -16
161 99 215 37 18 98 66 135 108 38 41 104 87 146 100 106 35 230 109 288 173
27 29 38 47 24 39 -14 -8 -25 -6 -25 4 0 11 18 24 40 30 26 7 40 27 40 57 -1
72 -23 138 -42 126 -10 -6 -13 2 -6 18 14 39 -107 158 -210 205 -106 49 -107
102 -4 213 108 119 162 223 162 316 0 109 -39 100 -98 -22z"/>
<path d="M5532 2314 c-33 -25 -33 -28 2 -71 l37 -46 37 41 c60 66 -3 129 -76
76z"/>
<path d="M964 2196 c-13 -13 -24 -35 -24 -48 0 -13 -27 -33 -60 -45 -73 -26
-76 -49 -10 -79 28 -13 61 -46 74 -74 28 -62 60 -64 86 -5 11 25 40 54 65 65
59 26 57 65 -5 94 -28 13 -56 44 -63 69 -13 53 -28 58 -63 23z"/>
<path d="M3897 1402 c-7 -18 -331 -242 -350 -242 -22 0 -64 -56 -52 -69 8 -7
-1 -8 -19 -1 -17 7 -38 3 -45 -9 -7 -11 -32 -21 -55 -21 -42 0 -42 -1 -4 -42
50 -55 140 -43 319 41 184 87 220 79 214 -46 -4 -70 6 -117 35 -163 65 -105
39 -124 -220 -162 -135 -19 -279 -87 -265 -124 10 -25 0 -28 -54 -17 -36 7
-227 13 -424 13 l-358 0 -22 49 c-24 53 -121 69 -477 76 -309 6 -411 -25 -549
-170 l-119 -125 -381 -20 c-210 -11 -379 -28 -376 -38 8 -28 4985 -28 4985 0
0 16 -115 28 -358 37 l-358 15 -39 103 -40 103 -157 -2 c-87 -2 -239 -12 -338
-24 -392 -46 -765 -82 -859 -83 -128 -1 -97 36 41 50 54 6 125 15 158 21 33 6
132 19 220 29 88 9 205 23 260 29 55 7 174 18 264 26 l164 14 -57 92 c-43 69
-92 111 -190 165 -155 86 -149 85 -257 31 -46 -23 -110 -49 -141 -59 l-58 -18
38 45 c51 61 71 73 117 74 102 3 122 50 69 165 -77 166 -238 324 -262 257z"/>
</g>
</svg>
