<?xml version="1.0" standalone="no"?>
<!DOCTYPE svg PUBLIC "-//W3C//DTD SVG 20010904//EN"
 "http://www.w3.org/TR/2001/REC-SVG-20010904/DTD/svg10.dtd">
<svg version="1.0" xmlns="http://www.w3.org/2000/svg"
 width="300.000000pt" height="300.000000pt" viewBox="0 0 300.000000 300.000000"
 preserveAspectRatio="xMidYMid meet">
<metadata>
Created by potrace 1.10, written by Peter Selinger 2001-2011
</metadata>
<g transform="translate(0.000000,300.000000) scale(0.100000,-0.100000)"
fill="#000000" stroke="none">
<path d="M572 2931 c-7 -19 -25 -37 -49 -50 l-38 -19 37 -16 c27 -12 43 -27
54 -54 l16 -37 12 35 c9 25 24 40 52 54 l39 19 -38 16 c-26 11 -41 26 -49 49
-15 40 -23 40 -36 3z m34 -68 c-3 -20 -22 -28 -31 -14 -8 14 3 31 20 31 7 0
12 -8 11 -17z"/>
<path d="M1837 2927 c-10 -20 -29 -40 -47 -47 -34 -14 -28 -33 13 -44 15 -3
28 -19 37 -43 l14 -38 15 38 c10 23 25 40 38 43 12 3 27 12 34 20 9 11 6 16
-20 25 -20 7 -38 24 -50 46 l-18 35 -16 -35z m33 -61 c0 -21 -21 -31 -31 -15
-5 8 -3 17 4 21 18 12 27 10 27 -6z"/>
<path d="M2310 2850 c0 -5 13 -10 28 -10 79 0 217 -112 274 -221 31 -62 32
-68 33 -189 0 -117 -2 -128 -28 -183 -31 -62 -130 -177 -153 -177 -8 0 -14 -4
-14 -8 0 -10 -66 -40 -108 -48 -61 -12 -33 -26 46 -21 103 6 162 22 233 64 93
55 160 145 198 264 14 46 14 180 0 216 -7 15 -18 44 -26 63 -24 59 -38 79 -91
134 -85 86 -182 126 -309 126 -49 0 -83 -4 -83 -10z m235 -50 c3 -5 13 -10 21
-10 22 0 115 -72 145 -111 63 -82 90 -171 84 -269 -6 -87 -9 -99 -40 -161 -24
-47 -130 -169 -146 -169 -4 0 -24 -8 -45 -17 -70 -30 -76 -25 -26 25 55 57 66
70 92 115 26 43 59 170 60 223 0 46 -36 195 -49 203 -4 4 -12 16 -15 29 -4 12
-35 52 -69 87 -53 55 -59 65 -40 65 12 0 25 -4 28 -10z"/>
<path d="M1067 2706 c-8 -20 16 -39 31 -24 8 8 7 14 -3 24 -17 18 -22 17 -28
0z"/>
<path d="M1425 2370 c-18 -20 -18 -20 6 -20 59 0 76 -2 114 -13 22 -6 45 -17
52 -23 14 -13 81 -23 133 -19 42 3 63 -11 55 -36 -4 -11 -2 -19 4 -19 5 0 13
9 16 20 6 19 25 28 25 13 0 -5 11 -13 25 -20 23 -10 25 -9 25 11 0 34 -31 56
-78 56 -22 0 -44 5 -47 10 -3 6 -19 10 -35 10 -16 0 -32 -4 -35 -10 -10 -17
-29 -12 -89 25 -70 42 -141 48 -171 15z"/>
<path d="M90 2355 c0 -18 24 -30 39 -21 16 10 1 36 -20 36 -10 0 -19 -7 -19
-15z"/>
<path d="M1451 2299 c-17 -19 -26 -20 -108 -14 l-88 6 -37 -36 c-37 -34 -48
-55 -29 -55 5 0 14 6 20 14 6 7 29 16 50 20 22 3 46 9 55 12 9 3 16 2 16 -4 0
-5 -10 -13 -22 -18 -18 -6 -9 -9 35 -11 40 -3 75 2 112 15 32 12 58 16 67 11
7 -5 27 -8 43 -8 l30 1 -30 13 c-16 8 -45 14 -63 15 -30 0 -31 2 -20 20 7 11
20 20 30 20 9 0 20 5 23 10 13 20 -64 11 -84 -11z"/>
<path d="M1812 2225 c-10 -12 -10 -15 1 -15 17 0 28 -32 18 -49 -8 -13 -36
-10 -67 7 -18 10 -23 9 -28 -6 -7 -20 -45 -85 -55 -92 -13 -10 -41 -60 -41
-73 0 -19 48 -110 66 -123 8 -6 14 -16 14 -22 0 -6 4 -12 9 -14 5 -1 12 -24
16 -51 6 -40 5 -46 -8 -41 -9 3 -25 1 -36 -6 -32 -16 -72 10 -117 77 -21 32
-42 60 -46 61 -5 2 -8 10 -8 18 0 8 -7 14 -15 14 -8 0 -15 3 -15 8 0 15 -63
42 -100 42 -21 0 -43 6 -50 15 -7 8 -19 15 -26 15 -8 0 -14 4 -14 8 0 14 -92
55 -119 54 -14 0 -56 -4 -93 -9 -63 -9 -69 -8 -125 22 -59 31 -114 65 -123 75
-3 3 -24 20 -46 38 -32 24 -52 32 -84 32 -46 0 -46 -15 0 -25 25 -6 30 -11 30
-36 0 -31 27 -49 73 -49 15 0 59 -34 124 -95 82 -77 107 -95 132 -95 16 0 32
4 35 9 3 5 38 12 78 16 40 4 80 13 90 19 14 8 21 8 26 0 4 -6 23 -14 42 -18
28 -5 42 -17 69 -56 28 -41 48 -57 100 -81 35 -16 80 -43 98 -59 19 -17 43
-30 53 -30 27 0 25 -12 -5 -40 -15 -14 -28 -40 -31 -62 -4 -21 -10 -38 -15
-38 -5 0 -9 -6 -9 -13 0 -18 -83 -95 -147 -137 -66 -43 -69 -60 -5 -24 107 59
176 130 201 205 6 20 23 46 36 59 13 13 22 27 19 31 -2 4 5 13 16 19 15 8 26
7 45 -6 14 -9 25 -21 25 -28 0 -6 4 -4 10 4 5 8 6 17 2 20 -14 10 -42 69 -42
87 0 10 -5 24 -11 30 -7 7 -7 13 -1 17 5 3 17 -11 27 -32 47 -102 57 -121 69
-125 15 -6 46 -86 53 -139 3 -21 9 -38 13 -38 5 0 11 -8 14 -17 3 -10 4 13 2
51 -1 43 -7 71 -14 74 -7 2 -12 25 -12 60 0 32 -7 79 -15 106 -8 27 -15 82
-15 122 0 68 -2 74 -31 98 -17 14 -36 26 -43 26 -7 0 -22 11 -34 25 -19 22
-20 28 -10 46 10 17 10 23 1 26 -12 4 -19 33 -9 33 3 0 20 -14 38 -30 l33 -30
17 22 c10 13 18 33 18 46 0 12 5 22 10 22 14 0 13 33 -2 48 -16 16 -40 15 -56
-3z m-76 -173 c7 -4 21 -24 33 -44 19 -35 19 -38 3 -38 -11 0 -23 13 -31 35
-7 19 -19 35 -27 35 -8 0 -12 5 -9 10 7 12 16 12 31 2z m-500 -48 c19 -9 33
-18 31 -20 -2 -2 -24 -7 -48 -10 -61 -8 -79 -11 -118 -23 -39 -12 -71 2 -91
39 -10 18 -9 20 12 15 13 -3 46 -1 73 4 77 13 104 12 141 -5z m479 -3 c9 -30
42 -54 62 -46 10 5 21 8 25 7 4 -1 5 5 1 14 -5 14 -3 14 16 3 11 -8 21 -16 22
-19 5 -29 5 -100 0 -92 -12 18 -48 23 -55 7 -3 -8 -11 -15 -19 -15 -16 0 -77
78 -78 99 0 9 -2 26 -5 39 -5 27 22 31 31 3z m-195 -153 c0 -17 -24 -6 -51 23
-40 43 -25 59 17 17 18 -18 34 -36 34 -40z m306 -4 c4 -14 19 -50 35 -81 33
-64 39 -94 14 -69 -8 8 -15 17 -15 20 0 4 -11 24 -24 45 -28 44 -44 111 -27
111 6 0 14 -12 17 -26z"/>
<path d="M1470 2185 c26 -28 50 -33 50 -10 0 9 10 15 26 15 14 0 23 4 19 10
-3 6 -31 10 -62 10 l-56 0 23 -25z"/>
<path d="M1625 2166 c-11 -8 -38 -19 -60 -25 -34 -11 -48 -9 -99 8 -75 27 -82
26 -112 -4 -22 -22 -31 -25 -62 -19 -34 7 -36 6 -23 -9 17 -21 74 -22 91 -2
16 19 84 20 103 0 21 -21 78 -22 123 -1 21 10 53 24 69 31 19 9 31 10 33 4 4
-11 32 8 32 22 0 14 -74 10 -95 -5z"/>
<path d="M511 1933 c-19 -32 -47 -70 -63 -85 -27 -27 -26 -45 2 -27 8 5 25 9
38 9 13 0 48 16 79 36 31 19 59 32 62 27 7 -10 27 -21 132 -75 76 -40 109 -74
109 -115 0 -10 21 -13 90 -13 79 0 95 3 130 25 39 25 113 35 124 16 3 -4 28
-11 55 -13 27 -3 62 -14 79 -26 25 -18 35 -20 57 -12 37 14 121 13 145 -2 16
-10 24 -10 40 0 11 6 28 12 37 12 16 1 16 2 2 10 -9 5 -29 9 -45 9 -16 0 -49
2 -74 6 -25 4 -61 3 -80 -2 -34 -9 -78 7 -212 78 -27 14 -113 11 -144 -6 -16
-8 -36 -15 -46 -15 -9 0 -18 -5 -20 -12 -2 -6 -40 29 -84 78 -45 51 -102 104
-132 122 -51 30 -59 32 -150 32 l-97 0 -34 -57z m256 -3 c53 -30 91 -64 148
-132 15 -18 41 -43 58 -55 l29 -22 -48 4 c-31 3 -53 11 -59 21 -26 43 -57 71
-101 92 -27 13 -56 27 -64 32 -66 40 -143 62 -152 43 -1 -5 -19 -17 -38 -27
l-34 -20 21 35 c25 39 58 53 134 57 43 2 62 -4 106 -28z"/>
<path d="M2302 1648 c-6 -6 -12 -18 -12 -25 0 -20 -49 -63 -71 -63 -28 0 -12
-27 20 -33 16 -4 32 -17 41 -34 28 -55 32 -56 51 -13 14 31 25 42 48 46 32 7
52 34 25 34 -28 0 -73 40 -81 71 -7 24 -11 27 -21 17z m38 -102 c0 -20 -28
-28 -52 -15 -19 10 -19 12 -3 29 14 15 22 17 36 9 11 -5 19 -16 19 -23z"/>
<path d="M2715 1629 c-4 -10 -13 -19 -21 -19 -20 0 -17 -10 12 -37 l26 -24 31
31 c29 28 29 30 9 30 -12 0 -22 6 -22 14 0 23 -28 27 -35 5z"/>
<path d="M1524 1633 c-70 -4 -73 -5 -129 -53 -38 -34 -50 -50 -38 -50 21 0 83
36 83 48 0 4 8 9 18 10 9 1 35 4 56 6 21 3 43 3 47 0 17 -10 -22 -61 -75 -99
-16 -11 -36 -27 -45 -36 -9 -9 -24 -19 -33 -22 -10 -4 -18 -12 -18 -19 0 -9 3
-10 8 -2 4 6 17 14 30 18 12 4 22 11 22 16 0 4 10 10 23 14 26 6 95 68 120
108 17 28 23 70 10 66 -5 -1 -40 -4 -79 -5z"/>
<path d="M1245 1587 c-16 -5 -37 -13 -46 -17 -9 -5 -33 -12 -53 -15 -20 -4
-39 -11 -42 -16 -3 -5 -15 -9 -27 -9 -26 -1 -94 -35 -81 -42 16 -8 124 3 119
12 -3 5 14 14 37 20 24 6 52 15 62 21 10 6 43 12 72 14 48 2 84 17 84 34 0 10
-93 9 -125 -2z"/>
<path d="M284 1554 c-3 -12 -18 -27 -32 -34 l-27 -12 28 -14 c15 -8 27 -21 27
-29 0 -26 20 -26 31 -1 7 14 24 29 38 34 24 9 25 10 6 17 -11 4 -30 19 -43 34
-22 26 -22 26 -28 5z"/>
<path d="M1880 1545 c-3 -11 -7 -67 -9 -125 -2 -58 -7 -106 -11 -108 -4 -2 -1
-16 7 -32 8 -17 13 -40 11 -52 -3 -19 -7 -16 -25 22 -20 41 -22 42 -23 18 0
-16 9 -55 21 -89 18 -51 19 -67 11 -102 -16 -63 -23 -194 -11 -224 8 -21 7
-28 -6 -35 -19 -11 -20 -28 0 -28 8 0 15 5 15 10 0 6 6 10 14 10 8 0 18 4 21
10 7 11 -12 51 -29 62 -8 5 -7 13 2 28 6 11 12 47 12 80 0 35 7 74 17 94 15
32 15 37 0 60 -19 29 -22 57 -7 72 15 15 26 284 12 284 -6 0 -12 15 -14 33 -2
24 -4 27 -8 12z"/>
<path d="M856 1418 c19 -29 34 -56 34 -60 0 -9 91 2 105 12 6 4 25 11 43 15
17 3 32 10 32 15 0 5 17 10 37 12 20 2 38 8 40 14 5 14 -64 3 -126 -20 -74
-27 -107 -28 -119 -1 -10 22 -9 23 56 30 37 4 85 9 107 10 112 7 35 23 -117
24 l-127 1 35 -52z"/>
<path d="M1080 1380 c-35 -21 -88 -39 -133 -46 -33 -4 -51 -13 -58 -26 -9 -18
-4 -27 40 -67 27 -25 53 -58 57 -74 3 -15 10 -29 14 -32 5 -3 6 -14 3 -24 -8
-33 16 -33 56 -2 21 17 43 31 49 31 5 0 13 12 17 27 3 14 21 39 38 55 18 15
27 28 21 28 -13 0 -94 -76 -94 -88 0 -5 -12 -14 -27 -21 -28 -13 -43 -3 -43
29 0 9 -19 37 -42 64 -24 27 -43 54 -43 59 0 6 13 12 30 14 16 2 35 8 41 14 6
5 14 6 17 2 4 -3 7 -1 7 5 0 7 6 12 13 12 6 0 24 6 39 14 15 8 36 12 46 9 11
-2 22 1 25 9 6 17 -49 22 -73 8z"/>
<path d="M1560 1232 c0 -7 -33 -45 -74 -84 -41 -40 -95 -101 -120 -135 -53
-73 -66 -76 -151 -38 -30 14 -74 28 -98 31 -83 10 -85 17 -22 66 44 35 122
138 104 138 -14 0 -59 -50 -59 -66 0 -7 -17 -23 -37 -35 -21 -13 -44 -29 -52
-37 -8 -7 -24 -20 -37 -29 -13 -8 -24 -18 -24 -22 0 -13 96 -51 125 -50 17 1
56 -10 87 -25 31 -14 74 -26 95 -26 35 0 41 4 73 55 19 30 38 54 43 55 4 0 7
6 7 14 0 8 27 38 60 68 56 50 99 112 86 125 -3 4 -6 1 -6 -5z"/>
<path d="M1601 1223 c0 -13 -5 -23 -10 -23 -5 0 -13 -10 -17 -22 -3 -11 -31
-43 -60 -71 -30 -27 -77 -81 -106 -121 -29 -39 -57 -74 -63 -79 -14 -10 23
-37 52 -37 13 0 35 -12 50 -26 22 -22 33 -25 79 -23 64 3 79 -7 35 -22 -17 -6
-30 -16 -28 -23 5 -14 47 -21 47 -7 0 6 12 12 28 12 18 1 21 3 9 6 -10 3 -16
11 -13 18 2 7 -4 21 -15 31 -10 9 -19 14 -19 9 0 -4 -6 -3 -13 3 -7 6 -27 9
-45 6 -23 -4 -34 -1 -38 10 -3 8 -23 22 -45 30 -39 16 -48 29 -29 41 6 4 22
25 37 48 14 23 42 58 62 78 78 78 116 136 108 167 -3 12 -5 10 -6 -5z"/>
<path d="M2763 1144 c-8 -22 18 -37 36 -20 7 8 10 19 7 25 -10 16 -36 13 -43
-5z"/>
<path d="M481 1087 c-11 -27 -29 -43 -56 -49 -17 -3 -15 -6 13 -21 18 -10 37
-29 42 -42 12 -32 26 -32 34 0 4 15 17 30 31 35 27 10 34 30 12 30 -19 0 -47
33 -47 53 0 25 -19 21 -29 -6z"/>
<path d="M1892 790 c-18 -11 -39 -20 -47 -20 -8 0 -15 -4 -15 -10 0 -13 46
-13 71 0 15 8 19 7 19 -3 0 -15 -52 -59 -82 -70 -10 -3 -18 -11 -18 -17 0 -5
-6 -10 -14 -10 -17 0 -109 -81 -101 -89 3 -3 9 -1 13 5 4 5 43 32 87 59 44 27
82 52 85 55 3 4 20 15 38 25 27 16 32 25 32 57 0 45 -17 49 -68 18z"/>
<path d="M1626 753 c-4 -4 -30 -10 -59 -14 -29 -4 -101 -21 -162 -37 -98 -27
-110 -33 -113 -53 -2 -20 4 -26 39 -37 26 -8 46 -9 51 -4 6 6 -1 12 -16 16
-30 7 -35 26 -7 26 11 0 22 4 25 9 3 4 27 11 53 15 27 3 61 13 76 21 16 8 45
19 65 25 43 12 69 26 61 34 -3 4 -9 3 -13 -1z"/>
<path d="M1950 703 c0 -5 -27 -24 -60 -43 -33 -19 -60 -38 -60 -42 0 -5 -6 -8
-12 -8 -16 -1 -87 -59 -73 -60 6 0 43 20 83 44 39 25 81 47 92 51 11 3 20 11
20 16 0 36 78 -35 109 -100 12 -26 13 -35 4 -38 -7 -3 -23 -13 -35 -24 l-23
-20 35 7 c40 8 70 24 70 39 0 5 -7 19 -15 29 -8 11 -15 27 -15 37 0 33 -120
144 -120 112z"/>
<path d="M1260 593 c0 -5 -14 -16 -30 -25 -27 -15 -29 -19 -19 -42 19 -40 6
-53 -60 -61 -66 -8 -75 -14 -86 -62 l-7 -33 119 1 c127 1 130 5 14 17 -41 4
-76 12 -78 17 -2 6 17 17 42 24 59 17 83 39 87 76 4 42 36 66 80 58 20 -3 44
0 54 6 16 9 13 10 -18 11 -20 0 -40 5 -43 10 -7 12 -55 14 -55 3z"/>
<path d="M1710 541 c0 -5 -8 -12 -17 -14 -15 -4 -15 -5 -2 -6 9 0 22 6 29 14
9 10 9 15 1 15 -6 0 -11 -4 -11 -9z"/>
<path d="M2055 464 l-50 -24 65 6 c58 5 70 3 112 -20 49 -28 64 -42 70 -65 4
-16 -13 -20 -112 -31 -41 -4 -129 -16 -195 -25 -66 -9 -126 -17 -132 -17 -7
-1 -13 -5 -13 -11 0 -5 23 -6 53 -3 107 11 354 37 410 42 31 3 57 8 57 10 0
15 -75 104 -93 110 -12 4 -39 18 -59 30 -46 29 -50 29 -113 -2z"/>
<path d="M970 342 c-8 -5 -39 -12 -69 -15 -48 -6 -61 -12 -103 -54 -26 -26
-50 -55 -53 -64 -5 -14 -26 -18 -133 -25 -70 -4 -154 -7 -187 -8 -33 -1 -61
-4 -62 -9 -2 -4 553 -7 1232 -7 679 0 1235 3 1235 7 0 4 -42 8 -92 10 -51 1
-130 5 -174 8 l-82 7 -15 36 c-8 20 -18 45 -21 55 -5 14 -18 17 -86 17 -44 0
-99 -4 -122 -10 -24 -5 -95 -15 -158 -21 -63 -6 -144 -14 -179 -18 -42 -4 -66
-11 -69 -20 -4 -11 5 -13 44 -7 27 4 64 7 82 7 17 -1 32 3 32 9 0 5 7 7 15 4
8 -3 45 -1 82 5 37 6 126 12 198 13 l129 3 10 -27 c5 -15 7 -30 4 -33 -6 -6
-1639 -7 -1645 -1 -3 3 11 20 30 40 23 23 48 37 74 41 21 4 45 9 53 12 8 4 21
5 28 4 8 -1 19 3 26 8 8 7 59 10 129 8 88 -1 117 1 117 11 0 8 -19 12 -62 12
-35 0 -92 3 -128 5 -36 3 -72 2 -80 -3z"/>
<path d="M1778 223 c7 -3 16 -2 19 1 4 3 -2 6 -13 5 -11 0 -14 -3 -6 -6z"/>
</g>
</svg>
