<?xml version="1.0" standalone="no"?>
<!DOCTYPE svg PUBLIC "-//W3C//DTD SVG 20010904//EN"
 "http://www.w3.org/TR/2001/REC-SVG-20010904/DTD/svg10.dtd">
<svg version="1.0" xmlns="http://www.w3.org/2000/svg"
 width="300.000000pt" height="300.000000pt" viewBox="0 0 300.000000 300.000000"
 preserveAspectRatio="xMidYMid meet">
<metadata>
Created by potrace 1.10, written by Peter Selinger 2001-2011
</metadata>
<g transform="translate(0.000000,300.000000) scale(0.100000,-0.100000)"
fill="#AA22DD" stroke="none">
<path d="M572 2923 c-11 -16 -32 -35 -46 -42 l-25 -14 46 -45 c43 -42 47 -43
60 -26 7 10 13 21 13 26 0 4 14 15 32 24 l31 16 -32 20 c-17 11 -37 32 -45 45
l-13 25 -21 -29z"/>
<path d="M1834 2923 c-10 -18 -29 -37 -42 -43 -23 -10 -23 -10 20 -53 l43 -44
42 41 c36 35 39 42 26 51 -22 14 -46 38 -59 61 -11 18 -13 17 -30 -13z"/>
<path d="M2335 2851 c3 -5 19 -12 35 -16 52 -11 150 -85 195 -147 64 -86 88
-167 83 -281 -3 -84 -7 -101 -41 -169 -26 -53 -54 -91 -91 -125 -50 -46 -147
-103 -174 -103 -7 0 -12 -4 -12 -10 0 -15 101 -12 167 5 118 30 211 98 271
198 93 155 79 362 -33 496 -90 108 -200 161 -331 161 -43 0 -73 -4 -69 -9z"/>
<path d="M1075 2701 c-3 -5 -1 -12 5 -16 5 -3 10 1 10 9 0 18 -6 21 -15 7z"/>
<path d="M1441 2377 c-8 -11 -5 -16 14 -25 32 -15 31 -23 -5 -51 -28 -20 -38
-22 -109 -15 -77 6 -78 6 -114 -26 -34 -30 -52 -60 -25 -44 6 4 29 11 51 14
30 6 40 4 44 -8 5 -12 21 -14 97 -8 56 3 85 2 77 -3 -12 -8 -12 -13 3 -37 l18
-27 -27 7 c-73 19 -79 18 -114 -14 -37 -35 -35 -52 3 -26 31 20 75 21 101 2
40 -27 77 -25 149 5 64 27 106 31 106 9 0 -14 -23 -60 -29 -60 -4 0 -15 -16
-25 -35 -19 -34 -19 -35 4 -87 12 -28 35 -68 51 -88 16 -20 30 -50 31 -70 3
-33 1 -35 -34 -44 -55 -14 -82 4 -136 88 -52 81 -110 126 -164 126 -18 0 -55
15 -92 38 -83 52 -114 62 -167 51 -114 -22 -162 -5 -318 107 -43 32 -84 54
-99 54 l-25 0 20 -22 c12 -13 23 -34 25 -48 2 -21 11 -27 51 -35 40 -9 63 -24
148 -104 l101 -94 86 16 c194 37 223 32 284 -49 29 -37 54 -56 105 -80 38 -17
75 -39 83 -49 8 -10 27 -26 43 -35 l27 -17 -20 -25 c-11 -14 -25 -39 -32 -54
-11 -28 -12 -28 -16 -5 -4 22 -6 23 -82 20 -65 -3 -84 -8 -116 -31 -21 -15
-41 -24 -44 -19 -3 5 -23 11 -45 15 -32 5 -66 -2 -163 -34 -142 -46 -162 -55
-162 -75 0 -12 -16 -15 -80 -15 -57 0 -80 -4 -80 -12 0 -7 16 -39 35 -70 19
-32 30 -60 25 -63 -22 -13 -9 -53 25 -81 37 -29 75 -96 75 -132 0 -28 21 -37
52 -22 13 7 7 -2 -14 -20 -21 -17 -38 -37 -38 -44 0 -19 74 -56 113 -56 19 0
59 -11 89 -25 62 -29 123 -32 151 -8 18 17 18 17 6 -9 -14 -31 0 -58 31 -58 9
0 34 -11 54 -25 26 -18 50 -25 83 -25 45 0 46 -1 29 -19 -11 -12 -15 -27 -12
-39 7 -19 -28 -33 -192 -73 -42 -10 -54 -18 -59 -38 -4 -17 -1 -28 12 -38 18
-12 17 -13 -4 -13 -13 0 -39 -9 -57 -21 -29 -18 -34 -26 -34 -59 0 -36 -1 -38
-47 -50 -27 -7 -56 -14 -65 -17 -18 -4 -43 -67 -33 -83 3 -5 21 -11 38 -12 18
-1 -4 -4 -48 -8 -44 -4 -109 -12 -145 -19 -62 -10 -68 -15 -126 -76 l-61 -64
-109 -11 c-60 -5 -127 -12 -149 -13 -22 -2 487 -4 1130 -4 663 0 1127 3 1070
8 -184 15 -178 13 -206 72 l-24 52 -105 4 c-102 4 -104 4 -58 15 l47 11 -30
47 c-33 51 -138 118 -184 118 -22 0 -24 2 -14 18 26 42 -94 211 -141 199 -21
-5 -21 -5 -5 13 10 11 15 31 13 52 -2 27 -8 34 -28 36 -18 2 -29 13 -42 43
-15 34 -15 52 -7 130 6 50 14 101 18 112 6 14 3 36 -7 60 -12 31 -13 46 -3 78
7 21 14 85 17 142 3 56 12 116 20 134 18 40 18 61 -1 97 -8 15 -15 45 -15 65
0 20 -7 71 -15 114 -8 43 -15 102 -15 131 0 57 -15 78 -76 109 -36 19 -47 38
-38 73 7 26 23 31 42 12 15 -15 52 16 52 44 0 10 6 27 12 38 10 15 10 22 1 31
-9 9 -9 16 0 30 15 24 0 51 -34 61 -81 22 -127 28 -152 19 -21 -8 -36 -4 -91
24 -69 37 -134 46 -155 22z m328 -382 c0 -5 -6 -1 -14 9 -8 11 -15 24 -15 30
0 5 7 1 15 -10 8 -10 14 -23 14 -29z m74 -225 c-6 -7 -23 23 -23 40 0 8 6 4
13 -10 8 -14 12 -27 10 -30z m-33 -47 c0 -5 -9 6 -20 22 -11 17 -20 37 -20 45
0 8 9 -2 20 -23 11 -20 20 -40 20 -44z m-203 -170 c-4 -3 -7 0 -7 7 0 7 3 10
7 7 3 -4 3 -10 0 -14z m-217 -583 c0 -5 -5 -10 -11 -10 -5 0 -7 5 -4 10 3 6 8
10 11 10 2 0 4 -4 4 -10z"/>
<path d="M102 2356 c1 -10 8 -17 13 -17 15 1 12 24 -3 29 -9 3 -13 -2 -10 -12z"/>
<path d="M494 1910 l-52 -80 34 0 c20 0 57 13 88 30 61 35 53 37 189 -38 76
-42 91 -54 107 -90 l19 -42 86 0 c75 0 91 3 126 26 30 19 50 25 73 21 101 -16
161 -29 176 -40 18 -13 265 -15 277 -3 4 3 -6 6 -22 6 -15 0 -45 5 -67 12 -30
9 -50 9 -83 0 -43 -11 -47 -10 -145 39 -94 47 -106 50 -158 46 -31 -2 -75 -11
-97 -20 -25 -9 -45 -12 -55 -6 -8 4 -44 41 -80 82 -36 40 -88 87 -117 105 -48
30 -56 32 -150 32 l-98 0 -51 -80z"/>
<path d="M2284 1610 c-10 -16 -30 -34 -46 -41 -36 -15 -35 -25 2 -44 16 -8 35
-25 41 -38 19 -36 31 -37 53 -4 12 18 32 36 44 42 30 13 28 27 -6 47 -15 9
-34 28 -42 42 -17 33 -25 33 -46 -4z"/>
<path d="M2706 1619 c-17 -21 -17 -22 3 -42 l21 -21 27 27 c21 20 24 27 11 27
-9 0 -18 7 -22 15 -7 21 -18 19 -40 -6z"/>
<path d="M268 1532 l-26 -27 28 -27 27 -27 28 30 c16 16 27 30 24 31 -2 2 -16
13 -30 25 l-25 23 -26 -28z"/>
<path d="M2775 1150 c-4 -6 -3 -16 3 -22 6 -6 12 -6 17 2 4 6 3 16 -3 22 -6 6
-12 6 -17 -2z"/>
<path d="M476 1076 c-8 -14 -25 -27 -36 -31 -19 -6 -18 -10 21 -48 30 -30 43
-38 47 -28 3 8 19 27 36 43 17 15 25 28 17 28 -7 0 -26 13 -41 30 l-28 30 -16
-24z"/>
</g>
</svg>
