<?xml version="1.0" standalone="no"?>
<!DOCTYPE svg PUBLIC "-//W3C//DTD SVG 20010904//EN"
 "http://www.w3.org/TR/2001/REC-SVG-20010904/DTD/svg10.dtd">
<svg version="1.0" xmlns="http://www.w3.org/2000/svg"
 width="300.000000pt" height="300.000000pt" viewBox="0 0 300.000000 300.000000"
 preserveAspectRatio="xMidYMid meet">
<metadata>
Created by potrace 1.10, written by Peter Selinger 2001-2011
</metadata>
<g transform="translate(0.000000,300.000000) scale(0.100000,-0.100000)"
fill="#FFFFFF" stroke="none">
<path d="M583 2948 c-5 -7 -13 -21 -16 -30 -3 -9 -23 -26 -44 -37 l-38 -19 38
-17 c26 -11 42 -25 49 -45 13 -38 23 -38 37 0 7 20 21 34 41 41 38 14 39 35 1
44 -21 4 -33 16 -43 41 -11 27 -17 32 -25 22z"/>
<path d="M1835 2926 c-10 -23 -25 -37 -46 -45 -27 -9 -30 -13 -19 -26 7 -8 19
-15 27 -15 7 0 23 -16 35 -36 20 -34 22 -35 35 -18 7 10 13 24 13 31 0 7 11
15 25 19 13 3 29 12 35 20 9 10 4 16 -23 27 -23 10 -38 25 -45 46 -14 39 -20
39 -37 -3z"/>
<path d="M2338 2862 c-37 -4 -36 -22 0 -22 44 0 129 -48 187 -104 175 -172
173 -450 -4 -619 -56 -54 -128 -97 -162 -97 -25 0 -49 -11 -49 -22 0 -13 140
-5 205 12 73 18 176 89 225 154 182 241 76 578 -215 678 -35 13 -148 24 -187
20z m305 -131 c95 -70 155 -214 143 -341 -12 -125 -99 -258 -199 -303 l-40
-17 17 22 c103 141 131 211 131 333 0 109 -32 202 -101 294 -46 62 -49 68 -25
58 14 -6 48 -27 74 -46z"/>
<path d="M1066 2703 c-9 -24 9 -39 29 -23 12 10 13 16 4 26 -15 19 -25 18 -33
-3z"/>
<path d="M1430 2375 c-18 -21 -9 -26 48 -28 27 -1 55 -7 63 -13 31 -23 103
-48 138 -47 71 3 101 -6 101 -29 0 -21 1 -21 13 -3 12 16 18 16 47 7 42 -15
40 -15 40 7 0 26 -37 51 -74 51 -16 0 -45 5 -63 12 -27 10 -38 10 -53 0 -28
-17 -35 -16 -96 23 -43 28 -65 35 -103 35 -31 0 -53 -5 -61 -15z"/>
<path d="M103 2373 c-21 -8 -15 -43 6 -43 11 0 23 5 27 11 8 14 -17 38 -33 32z"/>
<path d="M1454 2299 c-17 -19 -26 -20 -109 -14 l-90 6 -37 -36 c-50 -47 -53
-72 -4 -40 12 8 45 17 72 20 44 5 46 4 24 -7 -24 -12 -22 -13 25 -16 50 -3
129 13 153 31 8 7 21 6 38 -2 31 -14 44 -14 44 -1 0 5 -18 13 -40 16 -45 7
-49 14 -20 32 11 7 20 17 20 22 0 18 -57 10 -76 -11z"/>
<path d="M1819 2228 c-1 -7 -2 -24 -2 -38 -2 -22 -6 -25 -38 -23 -32 2 -38 -2
-58 -37 -12 -22 -28 -45 -34 -52 -20 -21 -47 -66 -47 -79 0 -19 49 -117 63
-126 22 -15 35 -38 41 -78 7 -39 6 -41 -26 -51 -51 -16 -97 14 -150 97 -23 38
-49 69 -55 69 -7 0 -13 3 -13 8 0 14 -62 42 -95 42 -21 0 -53 13 -91 39 -63
41 -117 63 -137 56 -7 -3 -41 -9 -77 -14 -63 -9 -67 -8 -130 26 -36 20 -97 60
-137 89 -56 41 -81 54 -108 54 -43 0 -45 -12 -6 -27 22 -8 30 -18 33 -39 3
-26 8 -30 52 -39 41 -9 62 -24 147 -104 93 -87 102 -93 132 -87 18 4 66 13
107 21 41 7 82 15 90 17 25 4 104 -25 123 -47 9 -11 24 -32 32 -47 10 -17 40
-39 87 -61 40 -19 84 -46 97 -61 14 -14 35 -26 48 -26 29 0 29 -11 -1 -39 -14
-13 -28 -40 -31 -62 -4 -23 -22 -57 -43 -83 -38 -45 -95 -96 -107 -96 -4 0
-19 -10 -33 -21 l-27 -21 25 7 c14 4 37 16 52 26 14 11 29 19 33 19 20 0 95
89 128 152 21 40 47 84 57 98 18 24 19 24 54 7 41 -19 44 -14 16 28 -11 17
-20 41 -20 56 0 14 -5 30 -12 37 -9 9 -9 12 0 12 12 0 72 -113 72 -136 0 -8 7
-17 15 -20 30 -12 36 -66 26 -209 -6 -75 -13 -140 -15 -144 -3 -4 3 -29 13
-56 24 -62 30 -46 38 105 4 83 3 119 -6 124 -14 9 -15 66 -1 66 6 0 10 -13 10
-30 0 -16 4 -30 9 -30 5 0 12 -8 15 -17 3 -10 4 13 2 51 -1 43 -7 71 -14 74
-7 2 -12 26 -12 61 0 32 -7 80 -15 107 -8 27 -15 81 -15 121 0 67 -2 73 -31
97 -17 14 -36 26 -43 26 -7 0 -23 11 -36 25 -18 20 -21 27 -11 39 10 11 9 19
-1 35 -21 35 1 36 36 2 l33 -32 17 25 c9 14 16 34 16 46 0 11 5 20 10 20 6 0
10 9 10 20 0 29 -59 56 -61 28z m-51 -218 c21 -39 21 -40 1 -40 -10 0 -19 5
-19 11 0 6 -9 23 -20 39 -11 15 -17 30 -14 33 12 11 31 -5 52 -43z m-554 -9
c27 -10 13 -16 -77 -31 -67 -11 -80 -11 -87 1 -12 18 -9 20 52 29 70 10 89 10
112 1z m528 -39 c12 -10 22 -11 36 -3 25 13 62 -12 62 -43 0 -18 -9 -26 -40
-36 -45 -15 -50 -11 -93 68 -18 35 -13 67 7 41 6 -8 19 -20 28 -27z m111 -176
c60 -137 41 -144 -27 -10 -39 77 -43 94 -23 94 8 0 30 -38 50 -84z"/>
<path d="M1460 2200 c0 -6 13 -19 30 -28 56 -32 23 -45 -43 -17 -49 20 -61 19
-96 -10 -23 -20 -36 -24 -57 -19 -20 5 -26 3 -22 -7 7 -20 72 -24 88 -5 15 20
69 21 95 2 48 -32 100 -24 199 31 21 12 31 13 34 5 2 -8 8 -7 18 3 36 36 -16
41 -105 11 -44 -15 -55 -16 -62 -5 -5 9 -2 17 9 23 15 8 14 10 -3 17 -30 11
-85 10 -85 -1z"/>
<path d="M505 1925 c-22 -36 -50 -73 -63 -81 -12 -8 -20 -19 -18 -23 9 -14 88
12 144 46 l53 34 27 -19 c15 -11 65 -39 110 -63 81 -42 112 -73 112 -114 0
-12 15 -15 90 -15 79 0 95 3 130 25 41 26 113 34 125 15 3 -5 21 -10 39 -10
18 0 54 -11 80 -24 38 -19 54 -22 84 -15 52 12 116 11 129 -2 8 -8 23 -6 54 4
40 14 41 15 18 22 -13 5 -76 9 -139 10 -113 2 -116 3 -197 44 -90 45 -154 53
-209 27 -72 -34 -76 -33 -156 57 -41 46 -96 97 -126 115 -50 30 -59 32 -150
32 l-97 0 -40 -65z m263 -4 c33 -17 79 -61 166 -158 28 -31 28 -32 5 -26 -13
3 -42 25 -64 49 -25 27 -78 62 -143 95 -78 41 -98 55 -85 61 26 10 78 1 121
-21z m-186 3 c-13 -9 -26 -13 -30 -9 -8 8 17 25 38 25 9 0 6 -6 -8 -16z"/>
<path d="M2288 1619 c-7 -21 -23 -37 -49 -48 -40 -18 -40 -34 2 -44 14 -4 32
-19 39 -34 28 -55 32 -56 51 -14 13 29 26 42 46 47 44 11 45 26 2 46 -27 12
-43 27 -50 48 -14 38 -27 38 -41 -1z"/>
<path d="M2715 1630 c-3 -11 -13 -20 -21 -20 -20 0 -17 -12 11 -39 l25 -23 25
23 c28 27 31 39 11 39 -7 0 -16 9 -19 20 -3 11 -10 20 -15 20 -6 0 -14 -9 -17
-20z"/>
<path d="M1529 1629 c-41 -4 -84 -11 -95 -17 -26 -14 -84 -79 -77 -86 4 -3 31
8 60 24 90 51 169 42 110 -12 -14 -13 -41 -38 -62 -56 -20 -19 -33 -37 -29
-40 4 -4 9 -1 11 6 3 6 10 12 17 12 20 0 122 97 136 129 6 17 10 34 9 38 -2 4
-38 5 -80 2z"/>
<path d="M1245 1588 c-16 -6 -39 -14 -50 -18 -62 -24 -112 -40 -124 -40 -22 0
-81 -32 -76 -41 6 -9 100 -2 130 11 51 21 151 50 176 50 15 0 37 9 50 20 24
19 24 19 3 20 -12 0 -34 2 -50 4 -16 3 -42 0 -59 -6z"/>
<path d="M284 1554 c-3 -12 -18 -27 -32 -34 l-27 -12 26 -14 c15 -7 29 -23 32
-35 6 -20 8 -20 41 16 40 43 42 45 22 45 -8 0 -24 12 -35 28 -20 26 -21 26
-27 6z"/>
<path d="M832 1462 c2 -4 16 -31 33 -59 30 -52 30 -52 70 -46 22 3 44 9 50 14
5 5 18 9 30 9 12 0 26 5 32 11 6 6 26 15 45 19 27 6 30 9 15 15 -10 4 -41 0
-75 -11 -64 -21 -104 -24 -109 -9 -3 11 84 35 127 35 57 1 49 17 -11 24 -85 8
-211 8 -207 -2z"/>
<path d="M1030 1354 c-30 -13 -72 -24 -92 -24 -28 0 -40 -6 -49 -21 -10 -19
-6 -26 35 -61 47 -41 76 -91 76 -134 0 -12 4 -26 10 -29 15 -9 98 57 111 90 7
17 20 36 29 43 13 11 12 11 -7 2 -12 -5 -34 -25 -48 -44 -27 -35 -65 -40 -65
-8 0 8 -19 40 -41 70 -33 43 -38 56 -28 63 8 5 18 9 22 9 4 0 29 10 55 21 26
12 61 28 77 35 l30 13 -30 -1 c-16 0 -55 -11 -85 -24z"/>
<path d="M1834 1229 c3 -24 10 -59 15 -77 7 -22 7 -52 0 -85 -10 -53 -17 -274
-9 -269 3 1 15 5 28 8 27 8 30 45 5 69 -13 14 -14 21 -5 36 7 10 12 46 12 79
0 35 7 74 17 94 15 32 15 37 0 60 -10 14 -17 32 -17 41 0 17 -18 52 -38 73
-11 12 -12 8 -8 -29z"/>
<path d="M1526 1190 c-3 -8 -31 -35 -62 -60 -30 -25 -73 -71 -95 -102 -21 -31
-48 -59 -59 -63 -21 -7 -81 9 -115 31 -11 7 -44 16 -72 20 -29 3 -53 11 -53
16 0 6 17 25 38 43 39 35 91 115 73 115 -5 0 -18 -13 -28 -30 -9 -16 -50 -53
-90 -82 -40 -28 -73 -54 -73 -58 0 -13 92 -50 125 -50 19 0 60 -11 91 -25 56
-25 134 -34 134 -15 0 19 82 127 141 186 36 36 59 67 56 75 -4 12 -6 11 -11
-1z"/>
<path d="M1576 1170 c-10 -17 -13 -30 -6 -30 10 0 34 49 27 56 -2 2 -11 -10
-21 -26z"/>
<path d="M2772 1158 c-7 -7 -12 -17 -12 -24 0 -19 27 -24 41 -8 17 21 -10 51
-29 32z"/>
<path d="M1502 1093 c-24 -19 -58 -59 -76 -87 -18 -28 -45 -64 -60 -81 -24
-28 -25 -31 -9 -42 9 -7 27 -13 40 -13 13 0 36 -12 50 -26 23 -23 32 -26 80
-22 61 5 79 -7 34 -23 -17 -6 -31 -15 -31 -20 0 -16 30 -22 53 -11 12 6 28 12
36 14 22 6 -52 78 -81 78 -30 0 -128 48 -128 63 0 15 80 137 90 137 10 0 54
59 48 65 -2 2 -23 -12 -46 -32z"/>
<path d="M480 1085 c-5 -14 -24 -32 -40 -39 -32 -13 -28 -25 13 -39 9 -4 22
-18 27 -32 12 -32 26 -32 34 0 4 15 17 30 31 35 33 12 31 21 -5 42 -18 10 -30
25 -30 38 0 28 -19 25 -30 -5z"/>
<path d="M1897 790 c-14 -11 -32 -20 -41 -20 -9 0 -16 -4 -16 -10 0 -5 12 -10
26 -10 39 0 26 -18 -54 -80 -40 -30 -67 -57 -61 -59 6 -2 24 6 40 18 15 11 33
21 39 21 5 0 10 4 10 10 0 5 11 12 25 16 14 3 25 9 25 13 0 3 16 15 35 25 31
17 35 24 35 58 0 45 -21 51 -63 18z"/>
<path d="M1517 734 c-3 -3 -54 -19 -114 -34 -100 -26 -108 -30 -111 -54 -2
-17 1 -26 11 -26 8 0 30 -3 48 -7 30 -6 33 -5 21 9 -16 20 -10 24 75 47 67 18
163 57 163 66 0 7 -86 6 -93 -1z"/>
<path d="M1935 685 c-16 -13 -35 -24 -42 -25 -6 0 -13 -3 -15 -7 -5 -11 -97
-73 -108 -73 -6 0 -10 -4 -10 -10 0 -5 2 -10 4 -10 6 0 115 57 155 81 30 18
35 18 56 5 12 -8 35 -36 49 -62 l26 -47 -27 -30 -28 -29 25 6 c40 12 80 28 80
34 0 21 -60 124 -90 155 -21 20 -39 37 -41 37 -2 0 -17 -11 -34 -25z"/>
<path d="M1238 574 c-34 -22 -37 -26 -26 -48 18 -40 5 -53 -61 -61 -66 -8 -75
-14 -86 -62 l-7 -33 104 1 c104 1 104 3 1 25 -34 7 -28 19 15 32 45 14 67 35
76 76 10 40 29 56 70 56 19 0 38 5 41 10 4 6 -6 10 -24 10 -16 0 -33 5 -36 10
-9 15 -26 11 -67 -16z"/>
<path d="M2095 480 c-3 -5 -15 -10 -26 -10 -10 0 -19 -4 -19 -9 0 -5 -8 -12
-17 -14 -10 -3 7 -4 38 -4 50 1 64 -3 113 -36 31 -20 56 -41 56 -46 0 -14 -59
-31 -109 -31 -34 0 -230 -30 -258 -39 -2 -1 -15 -1 -30 -1 -20 0 -24 -3 -16
-11 9 -9 20 -9 44 0 17 6 62 11 98 11 36 1 86 5 111 10 25 5 89 12 143 16 53
4 97 8 97 10 0 11 -74 104 -82 104 -6 0 -33 14 -60 30 -51 31 -73 37 -83 20z"/>
<path d="M975 341 c-11 -5 -46 -11 -77 -15 -55 -7 -60 -11 -117 -72 l-59 -64
-182 -8 c-107 -4 -185 -11 -187 -17 -2 -7 414 -9 1237 -8 1147 2 1463 9 1093
24 -82 4 -160 7 -174 8 -25 1 -41 24 -63 95 -6 17 -14 18 -94 13 -99 -7 -245
-23 -282 -32 -14 -3 -69 -9 -123 -14 -56 -5 -104 -14 -110 -21 -10 -10 -3 -11
33 -5 25 4 77 9 115 10 39 2 104 8 145 13 41 6 121 11 177 11 93 -1 103 -2
108 -21 4 -11 4 -23 0 -26 -4 -4 -364 -8 -800 -10 -585 -2 -795 0 -800 9 -4 6
4 22 17 36 29 28 167 63 257 64 68 0 142 14 121 22 -26 10 -214 16 -235 8z"/>
</g>
</svg>
